<?xml version="1.0" encoding="UTF-8" standalone="no"?>
<svg
   xmlns:dc="http://purl.org/dc/elements/1.1/"
   xmlns:cc="http://creativecommons.org/ns#"
   xmlns:rdf="http://www.w3.org/1999/02/22-rdf-syntax-ns#"
   xmlns:svg="http://www.w3.org/2000/svg"
   xmlns="http://www.w3.org/2000/svg"
   xmlns:sodipodi="http://sodipodi.sourceforge.net/DTD/sodipodi-0.dtd"
   xmlns:inkscape="http://www.inkscape.org/namespaces/inkscape"
   sodipodi:docname="digitalocean-credit.svg"
   inkscape:version="1.0rc1 (09960d6f05, 2020-04-09)"
   inkscape:export-ydpi="25.4"
   inkscape:export-xdpi="25.4"
   inkscape:export-filename="C:\Users\Stark\code\june07.github.io\image\digitalocean-credit.png"
   id="svg8"
   version="1.1"
   viewBox="0 0 336 280"
   height="280mm"
   width="336mm">
  <defs
     id="defs2">
    <rect
       id="rect956"
       height="55.940476"
       width="313.72024"
       y="215.44643"
       x="9.827381" />
    <radialGradient
       gradientUnits="userSpaceOnUse"
       fy="36.188908"
       fx="25.346918"
       gradientTransform="scale(1.3634124,0.73345377)"
       cx="25.346918"
       cy="36.188908"
       r="90.998482"
       id="a">
      <stop
         stop-color="#5fb0e2"
         offset="0%"
         id="stop882" />
      <stop
         stop-color="#45a1d7"
         offset="9.123%"
         id="stop884" />
      <stop
         stop-color="#2c93cd"
         offset="20.8%"
         id="stop886" />
      <stop
         stop-color="#1888c4"
         offset="33.83%"
         id="stop888" />
      <stop
         stop-color="#0b80be"
         offset="48.76%"
         id="stop890" />
      <stop
         stop-color="#027bbb"
         offset="67.24%"
         id="stop892" />
      <stop
         stop-color="#007aba"
         offset="100%"
         id="stop894" />
    </radialGradient>
  </defs>
  <sodipodi:namedview
     inkscape:window-maximized="0"
     inkscape:window-y="156"
     inkscape:window-x="3996"
     inkscape:window-height="1541"
     inkscape:window-width="2238"
     showgrid="false"
     inkscape:document-rotation="0"
     inkscape:current-layer="layer1"
     inkscape:document-units="mm"
     inkscape:cy="560"
     inkscape:cx="400"
     inkscape:zoom="0.35"
     inkscape:pageshadow="2"
     inkscape:pageopacity="0.0"
     borderopacity="1.0"
     bordercolor="#666666"
     pagecolor="#ffffff"
     id="base" />
  <metadata
     id="metadata5">
    <rdf:RDF>
      <cc:Work
         rdf:about="">
        <dc:format>image/svg+xml</dc:format>
        <dc:type
           rdf:resource="http://purl.org/dc/dcmitype/StillImage" />
        <dc:title></dc:title>
      </cc:Work>
    </rdf:RDF>
  </metadata>
  <g
     id="layer1"
     inkscape:groupmode="layer"
     inkscape:label="Layer 1">
    <g
       transform="matrix(1.171875,0,0,1.171875,18,19.577246)"
       id="g952">
      <path
         inkscape:connector-curvature="0"
         d="m 42.8,100.2 c 34,-21.9 72.6,-6.1 91.9,4.4 C 108,94 69,91.6 42.8,100.2"
         fill="#5fb0e2"
         id="path899" />
      <path
         style="fill:url(#a)"
         inkscape:connector-curvature="0"
         d="M 71.6,0 C 88,0 102,9.6 108.3,23.5 H 95.5 c -5.6,-7 -14.3,-11.4 -24.1,-11.4 -9.6,0 -18.1,4.3 -23.8,11.1 0.3,-0.2 0.6,-0.5 0.9,-0.7 13.4,-9.5 31.2,1 31.2,1 0,0 -16.9,-4.9 -28.4,3.1 -11.5,8 -9.6,24.1 -9.6,24.1 0,0 -0.1,-0.2 -0.2,-0.6 0,0.2 0.1,0.4 0.1,0.6 C 38.9,48.7 35.5,47.4 31.9,47 31.5,44.7 31.2,42.3 31.2,39.8 31.3,17.8 49.3,0 71.6,0 M 20.1,90.9 v -3.4 c 10.6,-7.9 30.2,-18.1 53.8,-10.7 35.8,11.2 58.5,26.5 86.2,19.6 27.6,-6.9 30.1,-22 30.1,-22 0,0 -4.9,21.3 -32.1,26 -27.2,4.7 -52.3,-0.6 -84.3,-12.5 -21.6,-8 -42.4,-1.8 -53.7,3 m 0,-6.9 c 2,-1.3 4,-2.6 5.8,-3.6 -0.9,-0.6 -1.7,-1.2 -2.5,-2 -1.4,-1.4 -2.5,-3 -3.3,-4.6 v 7.4 l 0.2,0.2 c 0.4,0.3 0.7,0.6 1.1,0.9 -0.5,-0.2 -0.9,-0.4 -1.3,-0.7 V 84 m 0,-34.5 V 36.9 c 2.6,-0.9 5.4,-1.4 8.2,-1.6 -0.1,1.4 -0.2,2.9 -0.2,4.4 0,2.5 0.2,4.9 0.6,7.3 -3.1,0.2 -6,1.1 -8.6,2.5 m 0,-12.6 v 12.6 c -5.6,3.2 -9.4,9.2 -9.4,16.1 0,6.9 3.8,12.9 9.4,16.1 V 84 c -2.3,1.5 -4.5,3.2 -6.3,4.6 C 5.7,83.4 0.4,74.5 0.4,64.3 0.4,51.6 8.6,40.8 20.1,36.9 m 0,37 C 16.5,67 17.7,59.1 17.7,59.1 c 0,0 -6,13.9 2.4,22.2 v -7.4 m 0,13.5 c -5.5,4.1 -8.6,7.5 -8.6,7.5 0,0.1 3.2,-1.8 8.6,-4.1 v -3.4"
         fill="url(#a)"
         transform="translate(31)"
         id="path901" />
      <g
         fill="#5fb0e2"
         id="g905">
        <path
           inkscape:connector-curvature="0"
           d="m 141.1,82 c 0,0 17.1,8.7 33.1,7.3 16.1,-1.4 20.9,-7.1 20.9,-7.1 0,0 -5.9,10.9 -21.3,11.5 C 158.4,94.3 141.1,82.4 141.1,82 M 128,26.8 h 14.4 V 41.2 H 128 Z"
           id="path903" />
      </g>
      <path
         inkscape:connector-curvature="0"
         fill="#0088cf"
         d="m 185,66.5 h 11.1 V 77.6 H 185 Z"
         id="path907" />
      <path
         inkscape:connector-curvature="0"
         fill="#5fb0e2"
         d="m 145.3,13.6 h 19.1 v 19.1 h -19.1 z"
         id="path909" />
      <path
         inkscape:connector-curvature="0"
         fill="#0088cf"
         d="M 200.9,46.7 H 220 v 19.1 h -19.1 z"
         id="path911" />
      <g
         fill="#5fb0e2"
         id="g915">
        <path
           inkscape:connector-curvature="0"
           d="M 166.3,34.2 H 177 v 10.7 h -10.7 z m 7.1,21 h 10.7 v 10.7 h -10.7 z"
           id="path913" />
      </g>
      <g
         fill="#0088cf"
         id="g919">
        <path
           inkscape:connector-curvature="0"
           d="m 150.9,56.3 h 10.7 V 67 h -10.7 z m 37.5,-21.7 h 10.7 v 10.7 h -10.7 z"
           id="path917" />
      </g>
      <g
         fill="#0a8ccc"
         id="g923">
        <path
           inkscape:connector-curvature="0"
           d="m 31.5,137.3 c 0,2.6 -0.4,5 -1.3,7.2 -0.9,2.2 -2.1,4.1 -3.7,5.6 -1.6,1.6 -3.5,2.8 -5.7,3.7 -2.2,0.9 -4.7,1.3 -7.3,1.3 H 0 v -35.5 h 13.6 c 2.7,0 5.1,0.4 7.3,1.3 2.2,0.9 4.1,2.1 5.7,3.7 1.6,1.6 2.8,3.4 3.7,5.6 0.8,2.2 1.2,4.5 1.2,7.1 m -6.7,0 c 0,-1.9 -0.3,-3.7 -0.8,-5.2 -0.5,-1.5 -1.3,-2.9 -2.2,-3.9 -1,-1.1 -2.1,-1.9 -3.5,-2.5 -1.4,-0.6 -2.9,-0.9 -4.7,-0.9 H 6.7 v 25 h 6.9 c 1.7,0 3.3,-0.3 4.7,-0.9 1.4,-0.6 2.6,-1.4 3.5,-2.5 1,-1.1 1.7,-2.4 2.2,-3.9 0.5,-1.5 0.8,-3.2 0.8,-5.2 m 16.5,-14.7 c 0,0.5 -0.1,1 -0.3,1.5 -0.2,0.5 -0.5,0.9 -0.8,1.2 -0.4,0.3 -0.8,0.6 -1.2,0.8 -0.5,0.2 -1,0.3 -1.5,0.3 -0.5,0 -1,-0.1 -1.5,-0.3 -0.5,-0.2 -0.9,-0.5 -1.2,-0.8 -0.3,-0.3 -0.6,-0.7 -0.8,-1.2 -0.2,-0.5 -0.3,-0.9 -0.3,-1.5 0,-0.5 0.1,-1 0.3,-1.5 0.2,-0.5 0.5,-0.9 0.8,-1.2 0.3,-0.3 0.7,-0.6 1.2,-0.8 0.5,-0.2 1,-0.3 1.5,-0.3 0.5,0 1,0.1 1.5,0.3 0.5,0.2 0.9,0.5 1.2,0.8 0.4,0.3 0.6,0.8 0.8,1.2 0.2,0.4 0.3,0.9 0.3,1.5 m -0.9,7.3 v 25.2 h -6.1 v -25.2 h 6.1 m 13.1,-0.4 c 1.1,0 2.1,0.1 3,0.3 0.9,0.2 1.8,0.5 2.6,1 h 7.2 v 2.3 c 0,0.4 -0.1,0.7 -0.3,0.9 -0.2,0.2 -0.5,0.4 -1,0.4 l -2.3,0.4 c 0.2,0.4 0.3,0.9 0.4,1.3 0.1,0.5 0.1,1 0.1,1.5 0,1.2 -0.2,2.4 -0.7,3.4 -0.5,1 -1.2,1.9 -2.1,2.6 -0.9,0.7 -1.9,1.2 -3.1,1.6 -1.2,0.4 -2.5,0.6 -3.9,0.6 -0.9,0 -1.9,-0.1 -2.8,-0.3 -0.8,0.5 -1.2,1 -1.2,1.6 0,0.5 0.2,0.9 0.7,1.1 0.5,0.2 1.1,0.4 1.8,0.5 0.8,0.1 1.6,0.1 2.6,0.1 1,0 2,0 3,0.1 1,0.1 2,0.2 3,0.4 1,0.2 1.8,0.5 2.6,1 0.8,0.4 1.4,1 1.8,1.8 0.5,0.8 0.7,1.7 0.7,2.9 0,1.1 -0.3,2.2 -0.8,3.3 -0.5,1.1 -1.3,2 -2.4,2.8 -1,0.8 -2.3,1.5 -3.8,2 -1.5,0.5 -3.2,0.8 -5.2,0.8 -1.9,0 -3.6,-0.2 -5,-0.6 -1.4,-0.4 -2.6,-0.9 -3.5,-1.5 -0.9,-0.6 -1.6,-1.3 -2.1,-2.1 -0.5,-0.8 -0.7,-1.6 -0.7,-2.5 0,-1.2 0.4,-2.2 1.1,-3 0.7,-0.8 1.7,-1.4 3,-1.9 -0.6,-0.3 -1.1,-0.8 -1.5,-1.4 -0.4,-0.6 -0.6,-1.3 -0.6,-2.2 0,-0.4 0.1,-0.8 0.2,-1.2 0.1,-0.4 0.3,-0.8 0.6,-1.2 0.3,-0.4 0.6,-0.8 1,-1.1 0.4,-0.4 0.9,-0.7 1.4,-0.9 -1.3,-0.7 -2.3,-1.6 -3,-2.8 -0.7,-1.1 -1.1,-2.5 -1.1,-4 0,-1.2 0.2,-2.4 0.7,-3.4 0.5,-1 1.2,-1.9 2.1,-2.6 0.9,-0.7 1.9,-1.3 3.2,-1.6 1.5,-0.2 2.8,-0.4 4.3,-0.4 m 6.6,26.7 c 0,-0.5 -0.1,-0.9 -0.4,-1.2 -0.3,-0.3 -0.7,-0.6 -1.2,-0.7 -0.5,-0.2 -1.1,-0.3 -1.8,-0.4 -0.7,-0.1 -1.4,-0.1 -2.2,-0.1 h -2.4 c -0.8,0 -1.6,-0.1 -2.3,-0.3 -0.7,0.4 -1.2,0.8 -1.7,1.3 -0.4,0.5 -0.6,1.1 -0.6,1.8 0,0.4 0.1,0.9 0.3,1.2 0.2,0.4 0.6,0.7 1.1,1 0.5,0.3 1.1,0.5 1.9,0.7 0.8,0.2 1.7,0.2 2.8,0.2 1.1,0 2.1,-0.1 2.9,-0.3 0.8,-0.2 1.5,-0.4 2,-0.7 0.5,-0.3 0.9,-0.7 1.2,-1.1 0.3,-0.5 0.4,-0.9 0.4,-1.4 m -6.6,-14.3 c 0.8,0 1.4,-0.1 2,-0.3 0.6,-0.2 1,-0.5 1.4,-0.8 0.4,-0.4 0.6,-0.8 0.8,-1.3 0.2,-0.5 0.3,-1.1 0.3,-1.7 0,-1.2 -0.4,-2.2 -1.1,-3 -0.7,-0.7 -1.9,-1.1 -3.4,-1.1 -1.5,0 -2.6,0.4 -3.4,1.1 -0.7,0.7 -1.1,1.7 -1.1,3 0,0.6 0.1,1.1 0.3,1.6 0.2,0.5 0.5,0.9 0.8,1.3 0.4,0.4 0.8,0.7 1.4,0.9 0.6,0.2 1.2,0.3 2,0.3 m 21.6,-19.3 c 0,0.5 -0.1,1 -0.3,1.5 -0.2,0.5 -0.5,0.9 -0.8,1.2 -0.4,0.3 -0.8,0.6 -1.2,0.8 -0.5,0.2 -1,0.3 -1.5,0.3 -0.5,0 -1,-0.1 -1.5,-0.3 -0.5,-0.2 -0.9,-0.5 -1.2,-0.8 -0.3,-0.3 -0.6,-0.7 -0.8,-1.2 -0.2,-0.5 -0.3,-0.9 -0.3,-1.5 0,-0.5 0.1,-1 0.3,-1.5 0.2,-0.5 0.5,-0.9 0.8,-1.2 0.3,-0.3 0.7,-0.6 1.2,-0.8 0.5,-0.2 1,-0.3 1.5,-0.3 0.5,0 1,0.1 1.5,0.3 0.5,0.2 0.9,0.5 1.2,0.8 0.4,0.3 0.6,0.8 0.8,1.2 0.2,0.4 0.3,0.9 0.3,1.5 m -0.9,7.3 v 25.2 h -6.1 v -25.2 h 6.1 m 12.6,25.6 c -2.2,0 -3.9,-0.6 -5,-1.9 -1.2,-1.2 -1.8,-2.9 -1.8,-5.1 v -14.1 h -2.6 c -0.3,0 -0.6,-0.1 -0.8,-0.3 -0.2,-0.2 -0.4,-0.5 -0.4,-1 v -2.4 l 4.1,-0.7 1.3,-6.9 c 0.1,-0.3 0.2,-0.6 0.5,-0.8 0.2,-0.2 0.5,-0.3 0.9,-0.3 h 3.1 v 7.9 h 6.6 v 4.3 h -6.6 v 13.7 c 0,0.8 0.2,1.4 0.6,1.8 0.4,0.4 0.9,0.7 1.6,0.7 0.4,0 0.7,0 0.9,-0.1 0.3,-0.1 0.5,-0.2 0.7,-0.3 0.2,-0.1 0.4,-0.2 0.5,-0.3 0.1,-0.1 0.3,-0.1 0.4,-0.1 0.2,0 0.3,0 0.4,0.1 l 0.4,0.4 1.8,2.9 c -0.9,0.7 -1.9,1.3 -3,1.7 -1.1,0.6 -2.3,0.8 -3.6,0.8 m 28.1,-0.4 h -2.7 c -0.6,0 -1,-0.1 -1.4,-0.3 -0.3,-0.2 -0.6,-0.5 -0.7,-1 l -0.5,-1.8 c -0.6,0.6 -1.3,1.1 -1.9,1.5 -0.6,0.4 -1.2,0.8 -1.9,1.1 -0.7,0.3 -1.4,0.5 -2.1,0.7 -0.7,0.1 -1.6,0.2 -2.5,0.2 -1.1,0 -2,-0.1 -2.9,-0.4 -0.9,-0.3 -1.7,-0.7 -2.3,-1.3 -0.6,-0.6 -1.2,-1.3 -1.5,-2.1 -0.4,-0.9 -0.5,-1.8 -0.5,-3 0,-1 0.2,-1.9 0.7,-2.8 0.5,-0.9 1.3,-1.8 2.5,-2.5 1.2,-0.7 2.7,-1.4 4.6,-1.9 1.9,-0.5 4.3,-0.7 7.2,-0.7 v -1.5 c 0,-1.7 -0.4,-3 -1.1,-3.8 -0.7,-0.8 -1.7,-1.2 -3.1,-1.2 -1,0 -1.8,0.1 -2.5,0.3 -0.7,0.2 -1.2,0.5 -1.7,0.8 -0.5,0.3 -0.9,0.5 -1.3,0.8 -0.4,0.2 -0.9,0.3 -1.4,0.3 -0.4,0 -0.8,-0.1 -1.1,-0.3 -0.3,-0.2 -0.5,-0.5 -0.7,-0.8 L 95,133.5 c 2.9,-2.7 6.4,-4 10.5,-4 1.5,0 2.8,0.2 3.9,0.7 1.2,0.5 2.1,1.2 2.9,2 0.8,0.9 1.4,1.9 1.8,3.1 0.4,1.2 0.6,2.5 0.6,3.9 v 15.9 h 0.2 m -11.8,-3.8 c 0.6,0 1.2,-0.1 1.7,-0.2 0.5,-0.1 1,-0.3 1.5,-0.5 0.5,-0.2 0.9,-0.5 1.4,-0.8 0.4,-0.3 0.9,-0.7 1.3,-1.2 v -4.2 c -1.8,0 -3.2,0.1 -4.4,0.3 -1.2,0.2 -2.1,0.5 -2.9,0.9 -0.7,0.3 -1.2,0.8 -1.5,1.2 -0.3,0.5 -0.5,1 -0.5,1.5 0,1.1 0.3,1.8 0.9,2.3 0.6,0.5 1.5,0.7 2.5,0.7 m 21.7,-32.7 v 36.5 h -6.1 v -36.5 h 6.1 m 38.8,18.7 c 0,2.6 -0.4,5 -1.3,7.2 -0.9,2.2 -2.1,4.1 -3.7,5.8 -1.6,1.6 -3.5,2.9 -5.7,3.8 -2.2,0.9 -4.7,1.4 -7.3,1.4 -2.6,0 -5.1,-0.5 -7.4,-1.4 -2.2,-0.9 -4.1,-2.2 -5.7,-3.8 -1.6,-1.6 -2.8,-3.5 -3.7,-5.8 -0.9,-2.2 -1.3,-4.6 -1.3,-7.2 0,-2.6 0.4,-5 1.3,-7.2 0.9,-2.2 2.1,-4.1 3.7,-5.8 1.6,-1.6 3.5,-2.9 5.7,-3.8 2.2,-0.9 4.7,-1.4 7.4,-1.4 2.7,0 5.1,0.5 7.3,1.4 2.2,0.9 4.1,2.2 5.7,3.8 1.6,1.6 2.8,3.5 3.7,5.7 0.9,2.3 1.3,4.7 1.3,7.3 m -6.7,0 c 0,-1.9 -0.3,-3.7 -0.8,-5.2 -0.5,-1.5 -1.3,-2.9 -2.2,-3.9 -1,-1.1 -2.1,-1.9 -3.5,-2.5 -1.4,-0.6 -2.9,-0.9 -4.7,-0.9 -1.8,0 -3.3,0.3 -4.7,0.9 -1.4,0.6 -2.6,1.4 -3.5,2.5 -1,1.1 -1.7,2.4 -2.2,3.9 -0.5,1.5 -0.8,3.3 -0.8,5.2 0,1.9 0.3,3.7 0.8,5.2 0.5,1.5 1.3,2.9 2.2,3.9 1,1.1 2.2,1.9 3.5,2.5 1.4,0.6 3,0.9 4.7,0.9 1.7,0 3.3,-0.3 4.7,-0.9 1.4,-0.6 2.6,-1.4 3.5,-2.5 1,-1.1 1.7,-2.4 2.2,-3.9 0.5,-1.5 0.8,-3.2 0.8,-5.2 m 26.8,-2.1 -0.5,0.5 c -0.2,0.1 -0.4,0.2 -0.7,0.2 -0.3,0 -0.6,-0.1 -0.9,-0.3 -0.3,-0.2 -0.6,-0.4 -1.1,-0.6 -0.4,-0.2 -0.9,-0.5 -1.5,-0.6 -0.6,-0.2 -1.3,-0.3 -2.1,-0.3 -1.1,0 -2,0.2 -2.8,0.6 -0.8,0.4 -1.5,0.9 -2,1.7 -0.5,0.7 -0.9,1.6 -1.2,2.6 -0.3,1 -0.4,2.2 -0.4,3.5 0,1.3 0.1,2.5 0.4,3.6 0.3,1 0.7,1.9 1.2,2.6 0.5,0.7 1.2,1.3 2,1.6 0.8,0.4 1.6,0.6 2.6,0.6 1,0 1.7,-0.1 2.3,-0.4 0.6,-0.2 1.1,-0.5 1.5,-0.8 0.4,-0.3 0.8,-0.5 1.1,-0.8 0.3,-0.2 0.6,-0.4 1,-0.4 0.5,0 0.9,0.2 1.1,0.6 l 1.7,2.2 c -0.7,0.8 -1.4,1.4 -2.2,2 -0.8,0.5 -1.6,1 -2.4,1.3 -0.8,0.3 -1.7,0.5 -2.6,0.7 -0.9,0.1 -1.8,0.2 -2.7,0.2 -1.6,0 -3,-0.3 -4.4,-0.9 -1.4,-0.6 -2.6,-1.4 -3.6,-2.5 -1,-1.1 -1.8,-2.5 -2.4,-4.1 -0.6,-1.6 -0.9,-3.4 -0.9,-5.5 0,-1.8 0.3,-3.6 0.8,-5.1 0.5,-1.6 1.3,-2.9 2.3,-4.1 1,-1.2 2.3,-2.1 3.8,-2.7 1.5,-0.7 3.3,-1 5.3,-1 1.9,0 3.5,0.3 4.9,0.9 1.4,0.6 2.7,1.5 3.8,2.6 l -1.4,2.1 m 13.7,-5.7 c 1.6,0 3,0.3 4.4,0.8 1.3,0.5 2.5,1.2 3.5,2.2 1,1 1.7,2.2 2.3,3.6 0.5,1.4 0.8,3 0.8,4.8 0,0.5 0,0.8 -0.1,1.1 0,0.3 -0.1,0.5 -0.2,0.7 -0.1,0.2 -0.2,0.3 -0.4,0.4 -0.2,0.1 -0.4,0.1 -0.7,0.1 h -15.6 c 0.2,2.6 0.9,4.5 2.1,5.7 1.2,1.2 2.8,1.8 4.8,1.8 1,0 1.8,-0.1 2.5,-0.3 0.7,-0.2 1.3,-0.5 1.9,-0.8 0.5,-0.3 1,-0.5 1.4,-0.8 0.4,-0.2 0.8,-0.3 1.2,-0.3 0.2,0 0.5,0 0.6,0.1 0.2,0.1 0.3,0.2 0.5,0.4 l 1.8,2.2 c -0.7,0.8 -1.4,1.4 -2.3,2 -0.8,0.5 -1.7,1 -2.6,1.3 -0.9,0.3 -1.8,0.5 -2.8,0.7 -0.9,0.1 -1.9,0.2 -2.7,0.2 -1.8,0 -3.4,-0.3 -4.9,-0.9 -1.5,-0.6 -2.8,-1.4 -3.9,-2.6 -1.1,-1.1 -2,-2.5 -2.6,-4.2 -0.6,-1.7 -1,-3.6 -1,-5.8 0,-1.7 0.3,-3.3 0.8,-4.8 0.6,-1.5 1.4,-2.8 2.4,-4 1,-1.1 2.3,-2 3.8,-2.7 1.4,-0.6 3.1,-0.9 5,-0.9 m 0.1,4.4 c -1.8,0 -3.2,0.5 -4.1,1.5 -1,1 -1.6,2.4 -1.9,4.2 h 11.4 c 0,-0.8 -0.1,-1.5 -0.3,-2.2 -0.2,-0.7 -0.5,-1.3 -1,-1.8 -0.4,-0.5 -1,-0.9 -1.7,-1.2 -0.7,-0.4 -1.5,-0.5 -2.4,-0.5 m 33,21.2 h -2.7 c -0.6,0 -1,-0.1 -1.4,-0.3 -0.3,-0.2 -0.6,-0.5 -0.7,-1 l -0.5,-1.8 c -0.6,0.6 -1.3,1.1 -1.9,1.5 -0.6,0.4 -1.2,0.8 -1.9,1.1 -0.7,0.3 -1.4,0.5 -2.1,0.7 -0.7,0.1 -1.6,0.2 -2.5,0.2 -1.1,0 -2,-0.1 -2.9,-0.4 -0.9,-0.3 -1.7,-0.7 -2.3,-1.3 -0.6,-0.6 -1.2,-1.3 -1.5,-2.1 -0.4,-0.9 -0.5,-1.8 -0.5,-3 0,-1 0.2,-1.9 0.7,-2.8 0.5,-0.9 1.3,-1.8 2.5,-2.5 1.2,-0.7 2.7,-1.4 4.6,-1.9 1.9,-0.5 4.3,-0.7 7.2,-0.7 v -1.5 c 0,-1.7 -0.4,-3 -1.1,-3.8 -0.7,-0.8 -1.7,-1.2 -3.1,-1.2 -1,0 -1.8,0.1 -2.5,0.3 -0.7,0.2 -1.2,0.5 -1.7,0.8 -0.5,0.3 -0.9,0.5 -1.3,0.8 -0.4,0.2 -0.9,0.3 -1.3,0.3 -0.4,0 -0.8,-0.1 -1.1,-0.3 -0.3,-0.2 -0.5,-0.5 -0.7,-0.8 l -1.1,-1.9 c 2.9,-2.7 6.4,-4 10.5,-4 1.5,0 2.8,0.2 3.9,0.7 1.2,0.5 2.1,1.2 2.9,2 0.8,0.9 1.4,1.9 1.8,3.1 0.4,1.2 0.6,2.5 0.6,3.9 v 15.9 h 0.1 m -11.7,-3.8 c 0.6,0 1.2,-0.1 1.7,-0.2 0.5,-0.1 1,-0.3 1.5,-0.5 0.5,-0.2 0.9,-0.5 1.4,-0.8 0.4,-0.3 0.9,-0.7 1.3,-1.2 v -4.2 c -1.8,0 -3.2,0.1 -4.4,0.3 -1.2,0.2 -2.1,0.5 -2.9,0.9 -0.7,0.3 -1.2,0.8 -1.5,1.2 -0.3,0.5 -0.5,1 -0.5,1.5 0,1.1 0.3,1.8 0.9,2.3 0.6,0.5 1.4,0.7 2.5,0.7 m 15.2,3.8 v -25.2 h 3.7 c 0.8,0 1.3,0.4 1.5,1.1 l 0.4,2 c 0.5,-0.5 1,-1 1.6,-1.4 0.6,-0.4 1.2,-0.8 1.8,-1.1 0.6,-0.3 1.3,-0.5 2,-0.7 0.7,-0.2 1.5,-0.2 2.4,-0.2 1.4,0 2.6,0.2 3.7,0.7 1.1,0.5 2,1.1 2.7,2 0.7,0.8 1.3,1.8 1.6,3 0.4,1.2 0.6,2.5 0.6,3.9 v 16 h -6.1 v -16 c 0,-1.5 -0.4,-2.7 -1.1,-3.6 -0.7,-0.8 -1.8,-1.3 -3.2,-1.3 -1,0 -2,0.2 -2.9,0.7 -0.9,0.5 -1.8,1.1 -2.6,1.9 v 18.2 H 234"
           id="path921" />
      </g>
    </g>
    <text
       inkscape:export-ydpi="25.4"
       inkscape:export-xdpi="25.4"
       transform="matrix(1,0,0,1.6038857,1.3605807,-123.58506)"
       style="font-size:10.5833px;line-height:1.25;font-family:'Architects Daughter';-inkscape-font-specification:'Architects Daughter, Normal';letter-spacing:0px;word-spacing:0px;white-space:pre;shape-inside:url(#rect956);"
       id="text954"
       xml:space="preserve"><tspan
         sodipodi:role="line"
         x="9.828125"
         y="235.33047"><tspan
           style="font-style:normal;font-variant:normal;font-weight:normal;font-stretch:normal;font-size:22.5778px;font-family:'Source Serif Pro';-inkscape-font-specification:'Source Serif Pro, Normal';font-variant-ligatures:normal;font-variant-caps:normal;font-variant-numeric:normal;font-variant-east-asian:normal">Get </tspan><tspan
           style="fill:#008000">$100</tspan><tspan
           style="font-style:normal;font-variant:normal;font-weight:normal;font-stretch:normal;font-size:22.5778px;font-family:'Source Serif Pro';-inkscape-font-specification:'Source Serif Pro, Normal';font-variant-ligatures:normal;font-variant-caps:normal;font-variant-numeric:normal;font-variant-east-asian:normal"> credit and try for free! </tspan></tspan></text>
    <text
       id="text962"
       y="235.85715"
       x="179.91667"
       style="font-size:10.5833px;line-height:1.25;font-family:'Architects Daughter';-inkscape-font-specification:'Architects Daughter, Normal';letter-spacing:0px;word-spacing:0px;stroke-width:0.264583"
       xml:space="preserve"><tspan
         style="stroke-width:0.264583"
         y="235.85715"
         x="179.91667"
         id="tspan960"
         sodipodi:role="line"></tspan></text>
  </g>
</svg>
