<?xml version="1.0" encoding="UTF-8" standalone="no"?>
<!-- Created with Inkscape (http://www.inkscape.org/) -->

<svg
   xmlns:dc="http://purl.org/dc/elements/1.1/"
   xmlns:cc="http://creativecommons.org/ns#"
   xmlns:rdf="http://www.w3.org/1999/02/22-rdf-syntax-ns#"
   xmlns:svg="http://www.w3.org/2000/svg"
   xmlns="http://www.w3.org/2000/svg"
   xmlns:sodipodi="http://sodipodi.sourceforge.net/DTD/sodipodi-0.dtd"
   xmlns:inkscape="http://www.inkscape.org/namespaces/inkscape"
   width="210mm"
   height="297mm"
   viewBox="0 0 210 297"
   version="1.1"
   id="svg8"
   inkscape:version="0.92.4 (5da689c313, 2019-01-14)"
   sodipodi:docname="logo.svg">
  <defs
     id="defs2" />
  <sodipodi:namedview
     id="base"
     pagecolor="#ffffff"
     bordercolor="#666666"
     borderopacity="1.0"
     inkscape:pageopacity="0.0"
     inkscape:pageshadow="2"
     inkscape:zoom="1"
     inkscape:cx="412.39992"
     inkscape:cy="586.30913"
     inkscape:document-units="mm"
     inkscape:current-layer="layer1"
     showgrid="false"
     inkscape:window-width="1309"
     inkscape:window-height="869"
     inkscape:window-x="4334"
     inkscape:window-y="494"
     inkscape:window-maximized="0" />
  <metadata
     id="metadata5">
    <rdf:RDF>
      <cc:Work
         rdf:about="">
        <dc:format>image/svg+xml</dc:format>
        <dc:type
           rdf:resource="http://purl.org/dc/dcmitype/StillImage" />
        <dc:title></dc:title>
      </cc:Work>
    </rdf:RDF>
  </metadata>
  <g
     inkscape:label="Layer 1"
     inkscape:groupmode="layer"
     id="layer1">
    <g
       id="g3724"
       transform="matrix(5.5454032,0,0,5.5028963,-475.21054,-671.04532)"
       inkscape:export-xdpi="46.303898"
       inkscape:export-ydpi="46.303898">
      <path
         style="fill:#fefefe;stroke-width:0.26458332"
         d="m 98.650002,148.49999 v -6.35 H 105 h 6.35 v 6.35 6.35 H 105 98.650002 Z"
         id="path3788"
         inkscape:connector-curvature="0" />
      <path
         style="fill:#f4f4f4;stroke-width:0.26458332"
         d="m 105.01162,154.38697 c 0.006,-0.25466 0.18318,-0.93927 0.39289,-1.52136 0.47591,-1.32101 0.49133,-1.69595 0.0446,-1.08503 -0.31887,0.43608 -0.41281,0.39419 -1.25677,-0.56044 l -0.91214,-1.03175 -1.3809,1.4709 c -1.16878,1.24496 -1.45329,1.42591 -1.85209,1.17797 -0.835548,-0.51948 -0.668949,-1.12471 0.71134,-2.58416 1.24336,-1.31468 1.31782,-1.46394 0.92579,-1.85596 -0.23447,-0.23448 -0.32851,-0.4301 -0.20898,-0.43473 0.11954,-0.005 0.0169,-0.16081 -0.22814,-0.34707 -0.24501,-0.18626 -0.52581,-0.65873 -0.624,-1.04992 -0.16284,-0.64884 -0.11213,-0.71052 0.57778,-0.70285 0.80814,0.009 1.68233,0.52723 1.68233,0.99733 0,0.78728 0.54898,0.4378 1.16604,-0.74231 l 0.69113,-1.32177 h -3.04525 -3.045258 v -0.79375 -0.79375 h 1.984378 c 1.80798,0 1.98437,-0.047 1.98437,-0.52916 0,-0.38806 0.17639,-0.52917 0.66146,-0.52917 0.48507,0 0.66146,0.14111 0.66146,0.52917 0,0.48213 0.17639,0.52916 1.98437,0.52916 h 1.98438 v 0.77618 c 0,0.64266 -0.12088,0.79058 -0.70268,0.8599 -0.54369,0.0648 -0.77996,0.30801 -1.04417,1.07498 -0.18781,0.54519 -0.66325,1.41313 -1.05653,1.92874 l -0.71505,0.93749 0.67515,0.71708 c 0.37134,0.3944 0.71908,0.95522 0.77277,1.24626 0.0568,0.30793 0.35305,-0.32811 0.70858,-1.52136 l 0.61095,-2.05052 h 1.01912 c 0.82916,0 1.0514,0.11097 1.1923,0.59532 0.0953,0.32742 0.57952,1.88848 1.07616,3.46901 0.49664,1.58054 0.90298,3.03906 0.90298,3.24115 0,0.23109 -0.29173,0.36744 -0.78618,0.36744 -0.66489,0 -0.82057,-0.13268 -1.00901,-0.8599 -0.20861,-0.80507 -0.29659,-0.85989 -1.37981,-0.85989 -1.08322,0 -1.17119,0.0548 -1.37981,0.85989 -0.18844,0.72722 -0.34412,0.8599 -1.009,0.8599 -0.57679,0 -0.78309,-0.12333 -0.77457,-0.46302 z m 3.53792,-3.62857 c -0.0945,-0.44176 -0.21739,-0.85281 -0.27315,-0.91344 -0.16641,-0.18095 -0.29444,0.0648 -0.47593,0.91344 -0.1477,0.69067 -0.0952,0.8032 0.37454,0.8032 0.46977,0 0.52224,-0.11253 0.37454,-0.8032 z"
         id="path3786"
         inkscape:connector-curvature="0" />
      <path
         style="fill:#fef5e6;stroke-width:0.26458332"
         d="m 105.01162,154.38697 c 0.006,-0.25466 0.18318,-0.93927 0.39289,-1.52136 0.45541,-1.26411 0.47178,-1.4552 0.12466,-1.4552 -0.14552,0 -0.25049,0.0893 -0.23325,0.19843 0.10446,0.66157 -0.14479,0.56047 -1.05863,-0.42939 l -1.02729,-1.11276 -1.34635,1.53175 c -1.14445,1.30207 -1.41691,1.48783 -1.81697,1.23882 -0.821935,-0.51161 -0.664285,-1.05249 0.76145,-2.61247 1.31814,-1.44226 1.36384,-1.53937 0.88811,-1.88723 -0.27585,-0.20171 -0.41061,-0.36674 -0.29948,-0.36674 0.11114,0 -0.0447,-0.31371 -0.3463,-0.69714 -0.77347,-0.9833 -0.7005,-1.41952 0.23745,-1.41952 0.56857,0 0.95017,0.22228 1.38023,0.80396 l 0.59439,0.80396 0.46598,-0.60553 c 0.25629,-0.33303 0.46862,-0.75435 0.47186,-0.93625 0.003,-0.1819 0.1051,-0.33073 0.22637,-0.33073 0.12127,0 0.22048,-0.17859 0.22048,-0.39687 0,-0.32943 -0.50956,-0.39688 -2.99861,-0.39688 h -2.998608 v -0.79375 -0.79375 h 1.984378 c 1.80798,0 1.98437,-0.047 1.98437,-0.52916 0,-0.38806 0.17639,-0.52917 0.66146,-0.52917 0.48507,0 0.66146,0.14111 0.66146,0.52917 0,0.48213 0.17639,0.52916 1.98437,0.52916 h 1.98438 v 0.77618 c 0,0.65005 -0.11823,0.78978 -0.72761,0.8599 -0.57943,0.0667 -0.79458,0.28887 -1.0565,1.09115 -0.18089,0.55409 -0.64511,1.42203 -1.03161,1.92875 l -0.70271,0.92131 0.67515,0.71708 c 0.37134,0.3944 0.71908,0.95522 0.77277,1.24626 0.0568,0.30793 0.35305,-0.32811 0.70858,-1.52136 l 0.61095,-2.05052 h 1.01912 c 0.82916,0 1.0514,0.11097 1.1923,0.59532 0.0953,0.32742 0.57952,1.88848 1.07616,3.46901 0.49664,1.58054 0.90298,3.03906 0.90298,3.24115 0,0.23109 -0.29173,0.36744 -0.78618,0.36744 -0.66489,0 -0.82057,-0.13268 -1.00901,-0.8599 -0.20861,-0.80507 -0.29659,-0.85989 -1.37981,-0.85989 -1.08322,0 -1.17119,0.0548 -1.37981,0.85989 -0.18844,0.72722 -0.34412,0.8599 -1.009,0.8599 -0.57679,0 -0.78309,-0.12333 -0.77457,-0.46302 z m 3.55037,-3.57188 c -0.19333,-0.90243 -0.31973,-1.15351 -0.48837,-0.97013 -0.0558,0.0606 -0.18429,0.49719 -0.28561,0.97013 -0.16314,0.7615 -0.11885,0.8599 0.38699,0.8599 0.50585,0 0.55013,-0.0984 0.38699,-0.8599 z"
         id="path3784"
         inkscape:connector-curvature="0" />
      <path
         style="fill:#e9e9e9;stroke-width:0.26458332"
         d="m 105,154.51945 c 0,-0.1818 0.50317,-1.90821 1.11815,-3.83646 l 1.11814,-3.50592 h 0.93871 0.93871 l 1.11815,3.50592 c 0.61498,1.92825 1.11814,3.65466 1.11814,3.83646 0,0.19017 -0.33386,0.33054 -0.78618,0.33054 -0.66489,0 -0.82057,-0.13268 -1.00901,-0.8599 -0.20861,-0.80507 -0.29659,-0.85989 -1.37981,-0.85989 -1.08322,0 -1.17119,0.0548 -1.37981,0.85989 -0.18844,0.72722 -0.34412,0.8599 -1.009,0.8599 -0.45233,0 -0.78619,-0.14037 -0.78619,-0.33054 z m 3.56199,-3.70436 c -0.19333,-0.90243 -0.31973,-1.15351 -0.48837,-0.97013 -0.0558,0.0606 -0.18429,0.49719 -0.28561,0.97013 -0.16314,0.7615 -0.11885,0.8599 0.38699,0.8599 0.50585,0 0.55013,-0.0984 0.38699,-0.8599 z m -8.800738,1.86532 c -0.531812,-0.53182 -0.37293,-0.90213 1.059508,-2.46945 1.30639,-1.4294 1.35129,-1.52547 0.87548,-1.8734 -0.27585,-0.20171 -0.41061,-0.36674 -0.29948,-0.36674 0.11114,0 -0.0447,-0.31371 -0.3463,-0.69714 -0.77347,-0.9833 -0.7005,-1.41952 0.23745,-1.41952 0.56857,0 0.95017,0.22228 1.38023,0.80396 l 0.59439,0.80396 0.46598,-0.60553 c 0.25629,-0.33303 0.46862,-0.75435 0.47186,-0.93625 0.003,-0.1819 0.1051,-0.33073 0.22637,-0.33073 0.12127,0 0.22048,-0.17859 0.22048,-0.39687 0,-0.32943 -0.50956,-0.39688 -2.99861,-0.39688 h -2.998608 v -0.79375 -0.79375 h 1.984378 c 1.80798,0 1.98437,-0.047 1.98437,-0.52916 0,-0.38806 0.17639,-0.52917 0.66146,-0.52917 0.48507,0 0.66146,0.14111 0.66146,0.52917 0,0.48213 0.17639,0.52916 1.98437,0.52916 h 1.98438 v 0.77618 c 0,0.65005 -0.11823,0.78978 -0.72761,0.8599 -0.57943,0.0667 -0.79458,0.28887 -1.0565,1.09115 -0.18089,0.55409 -0.64511,1.42203 -1.03161,1.92875 l -0.70271,0.92131 0.70088,0.73156 c 0.68732,0.71741 0.95829,1.89324 0.4363,1.89324 -0.14552,0 -0.25049,0.0893 -0.23325,0.19843 0.10451,0.66189 -0.14518,0.56005 -1.06215,-0.43321 l -1.03081,-1.11657 -1.26861,1.46942 c -1.31265,1.52044 -1.63416,1.69087 -2.173098,1.15193 z"
         id="path3782"
         inkscape:connector-curvature="0" />
      <path
         style="fill:#feecd0;stroke-width:0.26458332"
         d="m 105,154.51945 c 0,-0.1818 0.50317,-1.90821 1.11815,-3.83646 l 1.11814,-3.50592 h 0.93871 0.93871 l 1.11815,3.50592 c 0.61498,1.92825 1.11814,3.65466 1.11814,3.83646 0,0.19017 -0.33386,0.33054 -0.78618,0.33054 -0.66489,0 -0.82057,-0.13268 -1.00901,-0.8599 -0.20861,-0.80507 -0.29659,-0.85989 -1.37981,-0.85989 -1.08322,0 -1.17119,0.0548 -1.37981,0.85989 -0.18844,0.72722 -0.34412,0.8599 -1.009,0.8599 -0.45233,0 -0.78619,-0.14037 -0.78619,-0.33054 z m 3.56199,-3.70436 c -0.19333,-0.90243 -0.31973,-1.15351 -0.48837,-0.97013 -0.0558,0.0606 -0.18429,0.49719 -0.28561,0.97013 -0.16314,0.7615 -0.11885,0.8599 0.38699,0.8599 0.50585,0 0.55013,-0.0984 0.38699,-0.8599 z m -8.800738,1.86532 c -0.530345,-0.53035 -0.373484,-0.90152 1.029938,-2.43709 l 1.34744,-1.47431 -0.81827,-1.11267 c -1.02852,-1.39857 -1.03831,-1.80218 -0.0437,-1.80218 0.55047,0 0.95887,0.23549 1.41156,0.81392 l 0.63699,0.81392 0.49936,-0.74778 c 0.27465,-0.41127 0.47288,-0.83707 0.44052,-0.94621 -0.0324,-0.10914 0.0602,-0.19844 0.20575,-0.19844 0.14552,0 0.26458,-0.17859 0.26458,-0.39687 0,-0.32977 -0.51447,-0.39688 -3.04271,-0.39688 h -3.042708 v -0.79375 -0.79375 h 1.984378 c 1.80798,0 1.98437,-0.047 1.98437,-0.52916 0,-0.38806 0.17639,-0.52917 0.66146,-0.52917 0.48507,0 0.66146,0.14111 0.66146,0.52917 0,0.48213 0.17639,0.52916 1.98437,0.52916 h 1.98438 v 0.77618 c 0,0.65005 -0.11823,0.78978 -0.72761,0.8599 -0.57943,0.0667 -0.79458,0.28887 -1.0565,1.09115 -0.18089,0.55409 -0.64511,1.42203 -1.03161,1.92875 l -0.70271,0.92131 0.70088,0.73156 c 0.79132,0.82597 0.8257,0.9941 0.39139,1.91439 l -0.3095,0.65581 -0.96672,-1.03637 -0.96672,-1.03638 -1.28779,1.49164 c -1.33144,1.54221 -1.65234,1.71408 -2.192278,1.17415 z"
         id="path3780"
         inkscape:connector-curvature="0" />
      <path
         style="fill:#fee1b1;stroke-width:0.26458332"
         d="m 105.00253,154.51926 c 0.003,-0.45642 1.78402,-6.01436 2.16143,-6.74687 0.41573,-0.80692 1.60635,-0.80692 2.02209,0 0.37741,0.73251 2.15795,6.29045 2.16143,6.74687 10e-4,0.19095 -0.32976,0.33073 -0.78366,0.33073 -0.66489,0 -0.82057,-0.13268 -1.00901,-0.8599 -0.20861,-0.80507 -0.29659,-0.85989 -1.37981,-0.85989 -1.08322,0 -1.17119,0.0548 -1.37981,0.85989 -0.18844,0.72722 -0.34412,0.8599 -1.009,0.8599 -0.45391,0 -0.78512,-0.13978 -0.78366,-0.33073 z m 3.55946,-3.70417 c -0.19333,-0.90243 -0.31973,-1.15351 -0.48837,-0.97013 -0.0558,0.0606 -0.18429,0.49719 -0.28561,0.97013 -0.16314,0.7615 -0.11885,0.8599 0.38699,0.8599 0.50585,0 0.55013,-0.0984 0.38699,-0.8599 z m -8.800738,1.86532 c -0.530345,-0.53035 -0.373484,-0.90152 1.029938,-2.43709 l 1.34744,-1.47431 -0.81827,-1.11267 c -1.02852,-1.39857 -1.03831,-1.80218 -0.0437,-1.80218 0.55047,0 0.95887,0.23549 1.41156,0.81392 l 0.63699,0.81392 0.49936,-0.74778 c 0.27465,-0.41127 0.47288,-0.83707 0.44052,-0.94621 -0.0324,-0.10914 0.0602,-0.19844 0.20575,-0.19844 0.14552,0 0.26458,-0.17859 0.26458,-0.39687 0,-0.32977 -0.51447,-0.39688 -3.04271,-0.39688 h -3.042708 v -0.79375 -0.79375 h 1.984378 c 1.80798,0 1.98437,-0.047 1.98437,-0.52916 0,-0.38806 0.17639,-0.52917 0.66146,-0.52917 0.48507,0 0.66146,0.14111 0.66146,0.52917 0,0.48213 0.17639,0.52916 1.98437,0.52916 h 1.98438 v 0.77618 c 0,0.65005 -0.11823,0.78978 -0.72761,0.8599 -0.57943,0.0667 -0.79458,0.28887 -1.0565,1.09115 -0.18089,0.55409 -0.64511,1.42203 -1.03161,1.92875 l -0.70271,0.92131 0.70088,0.73156 c 0.79132,0.82597 0.8257,0.9941 0.39139,1.91439 l -0.3095,0.65581 -0.96672,-1.03637 -0.96672,-1.03638 -1.28779,1.49164 c -1.33144,1.54221 -1.65234,1.71408 -2.192278,1.17415 z"
         id="path3778"
         inkscape:connector-curvature="0" />
      <path
         style="fill:#d8d8d8;stroke-width:0.26458332"
         d="m 105,154.53834 c 0,-0.55756 1.69354,-5.6389 1.90981,-5.73022 0.11559,-0.0488 0.14585,-0.19279 0.0673,-0.31997 -0.27166,-0.43955 0.52466,-1.31108 1.19794,-1.31108 0.67328,0 1.4696,0.87153 1.19794,1.31108 -0.0786,0.12718 -0.0483,0.27116 0.0673,0.31997 0.21626,0.0913 1.9098,5.17266 1.9098,5.73022 0,0.17141 -0.33996,0.31165 -0.75547,0.31165 -0.62536,0 -0.79795,-0.14811 -1.00209,-0.8599 -0.23043,-0.80343 -0.32349,-0.85989 -1.41744,-0.85989 -1.09395,0 -1.18701,0.0565 -1.41743,0.85989 -0.20414,0.71179 -0.37674,0.8599 -1.00209,0.8599 -0.41551,0 -0.75548,-0.14024 -0.75548,-0.31165 z m 3.56199,-3.72325 c -0.19333,-0.90243 -0.31973,-1.15351 -0.48837,-0.97013 -0.0558,0.0606 -0.18429,0.49719 -0.28561,0.97013 -0.16314,0.7615 -0.11885,0.8599 0.38699,0.8599 0.50585,0 0.55013,-0.0984 0.38699,-0.8599 z m -8.800738,1.86532 c -0.530345,-0.53035 -0.373484,-0.90152 1.029938,-2.43709 l 1.34744,-1.47431 -0.81827,-1.11267 c -1.02852,-1.39857 -1.03831,-1.80218 -0.0437,-1.80218 0.55047,0 0.95887,0.23549 1.41156,0.81392 l 0.63699,0.81392 0.49936,-0.74778 c 0.27465,-0.41127 0.47288,-0.83707 0.44052,-0.94621 -0.0324,-0.10914 0.0602,-0.19844 0.20575,-0.19844 0.14552,0 0.26458,-0.17859 0.26458,-0.39687 0,-0.32977 -0.51447,-0.39688 -3.04271,-0.39688 h -3.042708 v -0.79375 -0.79375 h 1.984378 c 1.80798,0 1.98437,-0.047 1.98437,-0.52916 0,-0.38806 0.17639,-0.52917 0.66146,-0.52917 0.48507,0 0.66146,0.14111 0.66146,0.52917 0,0.48213 0.17639,0.52916 1.98437,0.52916 h 1.98438 v 0.77618 c 0,0.65005 -0.11823,0.78978 -0.72761,0.8599 -0.57943,0.0667 -0.79458,0.28887 -1.0565,1.09115 -0.18089,0.55409 -0.64511,1.42203 -1.03161,1.92875 l -0.70271,0.92131 0.70088,0.73156 c 0.79132,0.82597 0.8257,0.9941 0.39139,1.91439 l -0.3095,0.65581 -0.96672,-1.03637 -0.96672,-1.03638 -1.28779,1.49164 c -1.33144,1.54221 -1.65234,1.71408 -2.192278,1.17415 z"
         id="path3776"
         inkscape:connector-curvature="0" />
      <path
         style="fill:#fedda7;stroke-width:0.26458332"
         d="m 105,154.53834 c 0,-0.55756 1.69354,-5.6389 1.90981,-5.73022 0.11559,-0.0488 0.14585,-0.19279 0.0673,-0.31997 -0.27166,-0.43955 0.52466,-1.31108 1.19794,-1.31108 0.67328,0 1.4696,0.87153 1.19794,1.31108 -0.0786,0.12718 -0.0483,0.27116 0.0673,0.31997 0.21626,0.0913 1.9098,5.17266 1.9098,5.73022 0,0.17141 -0.33996,0.31165 -0.75547,0.31165 -0.62536,0 -0.79795,-0.14811 -1.00209,-0.8599 -0.23043,-0.80343 -0.32349,-0.85989 -1.41744,-0.85989 -1.09395,0 -1.18701,0.0565 -1.41743,0.85989 -0.20414,0.71179 -0.37674,0.8599 -1.00209,0.8599 -0.41551,0 -0.75548,-0.14024 -0.75548,-0.31165 z m 3.56199,-3.72325 c -0.19333,-0.90243 -0.31973,-1.15351 -0.48837,-0.97013 -0.0558,0.0606 -0.18429,0.49719 -0.28561,0.97013 -0.16314,0.7615 -0.11885,0.8599 0.38699,0.8599 0.50585,0 0.55013,-0.0984 0.38699,-0.8599 z m -8.800738,1.86532 c -0.516717,-0.51672 -0.386189,-0.82272 1.027528,-2.40887 l 1.34502,-1.50909 -0.81586,-1.10939 c -1.0261,-1.39529 -1.03536,-1.7989 -0.0413,-1.7989 0.54958,0 0.95863,0.23517 1.40821,0.80964 l 0.63364,0.80964 0.70845,-1.0223 c 0.38965,-0.56227 0.70846,-1.16473 0.70846,-1.33881 0,-0.22727 -0.85785,-0.31651 -3.04271,-0.31651 h -3.042708 v -0.81465 -0.81465 l 1.984988,0.0871 c 1.90806,0.0837 1.98497,0.064 1.98438,-0.50827 -4.8e-4,-0.45877 0.15109,-0.59531 0.66084,-0.59531 0.50975,0 0.66132,0.13654 0.66084,0.59531 -5.8e-4,0.57224 0.0763,0.59194 1.98438,0.50827 l 1.98499,-0.0871 v 0.79708 c 0,0.67285 -0.1134,0.81012 -0.72761,0.8808 -0.56155,0.0646 -0.78537,0.27995 -0.98075,0.94361 -0.13924,0.47294 -0.3476,0.8599 -0.46302,0.8599 -0.11543,0 -0.20987,0.13044 -0.20987,0.28988 0,0.15944 -0.244,0.63256 -0.54223,1.05138 l -0.54223,0.76149 0.57579,0.77879 c 0.45016,0.60888 0.5374,0.98337 0.39989,1.7164 l -0.1759,0.93759 -0.9782,-1.08276 -0.97821,-1.08275 -1.35407,1.48999 c -1.42053,1.56311 -1.65539,1.68985 -2.172758,1.17249 z"
         id="path3774"
         inkscape:connector-curvature="0" />
      <path
         style="fill:#fed796;stroke-width:0.26458332"
         d="m 105,154.51926 c 1e-5,-0.44516 1.58635,-5.28861 1.84148,-5.6224 0.11122,-0.14552 0.28044,-0.592 0.37604,-0.99218 0.14115,-0.59086 0.3211,-0.72761 0.95748,-0.72761 0.63639,0 0.81634,0.13675 0.95749,0.72761 0.0956,0.40018 0.26481,0.84666 0.37604,0.99218 0.25512,0.33379 1.84147,5.17724 1.84147,5.6224 0,0.18737 -0.32748,0.33073 -0.75547,0.33073 -0.62536,0 -0.79795,-0.14811 -1.00209,-0.8599 -0.23043,-0.80343 -0.32349,-0.85989 -1.41744,-0.85989 -1.09395,0 -1.18701,0.0565 -1.41743,0.85989 -0.20414,0.71179 -0.37674,0.8599 -1.00209,0.8599 -0.428,0 -0.75548,-0.14336 -0.75548,-0.33073 z m 3.60219,-3.68487 c -0.17828,-0.89142 -0.34497,-1.18189 -0.55672,-0.97014 -0.0712,0.0712 -0.20519,0.5078 -0.29766,0.97014 -0.14903,0.74516 -0.10053,0.8406 0.42719,0.8406 0.52772,0 0.57623,-0.0954 0.42719,-0.8406 z m -8.840938,1.84602 c -0.516717,-0.51672 -0.386189,-0.82272 1.027528,-2.40887 l 1.34502,-1.50909 -0.81586,-1.10939 c -1.0261,-1.39529 -1.03536,-1.7989 -0.0413,-1.7989 0.54958,0 0.95863,0.23517 1.40821,0.80964 l 0.63364,0.80964 0.70845,-1.0223 c 0.38965,-0.56227 0.70846,-1.16473 0.70846,-1.33881 0,-0.22727 -0.85785,-0.31651 -3.04271,-0.31651 h -3.042708 v -0.81465 -0.81465 l 1.984988,0.0871 c 1.90806,0.0837 1.98497,0.064 1.98438,-0.50827 -4.8e-4,-0.45877 0.15109,-0.59531 0.66084,-0.59531 0.50975,0 0.66132,0.13654 0.66084,0.59531 -5.8e-4,0.57224 0.0763,0.59194 1.98438,0.50827 l 1.98499,-0.0871 v 0.79708 c 0,0.67285 -0.1134,0.81012 -0.72761,0.8808 -0.56155,0.0646 -0.78537,0.27995 -0.98075,0.94361 -0.13924,0.47294 -0.3476,0.8599 -0.46302,0.8599 -0.11543,0 -0.20987,0.13044 -0.20987,0.28988 0,0.15944 -0.244,0.63256 -0.54223,1.05138 l -0.54223,0.76149 0.57579,0.77879 c 0.45016,0.60888 0.5374,0.98337 0.39989,1.7164 l -0.1759,0.93759 -0.9782,-1.08276 -0.97821,-1.08275 -1.35407,1.48999 c -1.42053,1.56311 -1.65539,1.68985 -2.172758,1.17249 z"
         id="path3772"
         inkscape:connector-curvature="0" />
      <path
         style="fill:#cacaca;stroke-width:0.26458332"
         d="m 105.00338,154.51926 c 0.006,-0.55521 1.33069,-4.52328 1.63141,-4.88563 0.15515,-0.18694 0.1934,-0.33989 0.085,-0.33989 -0.10839,0 -0.0799,-0.14883 0.0634,-0.33073 0.14327,-0.1819 0.33871,-0.65815 0.43431,-1.05833 0.14115,-0.59086 0.3211,-0.72761 0.95748,-0.72761 0.63639,0 0.81634,0.13675 0.95749,0.72761 0.0956,0.40018 0.29103,0.87643 0.43431,1.05833 0.14327,0.1819 0.17181,0.33073 0.0634,0.33073 -0.1084,0 -0.0702,0.15295 0.085,0.33989 0.30072,0.36235 1.62574,4.33042 1.63141,4.88563 0.002,0.19184 -0.32996,0.33073 -0.79037,0.33073 -0.43656,0 -0.77452,-0.0893 -0.75102,-0.19844 0.0235,-0.10914 -0.0926,-0.52586 -0.25804,-0.92604 -0.25812,-0.62445 -0.45266,-0.7276 -1.37219,-0.7276 -0.91953,0 -1.11407,0.10315 -1.37219,0.7276 -0.16542,0.40018 -0.28153,0.8169 -0.25803,0.92604 0.0235,0.10914 -0.31447,0.19844 -0.75103,0.19844 -0.46041,0 -0.79233,-0.13889 -0.79037,-0.33073 z m 3.59881,-3.68487 c -0.17828,-0.89142 -0.34497,-1.18189 -0.55672,-0.97014 -0.0712,0.0712 -0.20519,0.5078 -0.29766,0.97014 -0.14903,0.74516 -0.10053,0.8406 0.42719,0.8406 0.52772,0 0.57623,-0.0954 0.42719,-0.8406 z m -8.840938,1.84602 c -0.516717,-0.51672 -0.386189,-0.82272 1.027528,-2.40887 l 1.34502,-1.50909 -0.81586,-1.10939 c -1.0261,-1.39529 -1.03536,-1.7989 -0.0413,-1.7989 0.54958,0 0.95863,0.23517 1.40821,0.80964 l 0.63364,0.80964 0.70845,-1.0223 c 0.38965,-0.56227 0.70846,-1.16473 0.70846,-1.33881 0,-0.22727 -0.85785,-0.31651 -3.04271,-0.31651 h -3.042708 v -0.81465 -0.81465 l 1.984988,0.0871 c 1.90806,0.0837 1.98497,0.064 1.98438,-0.50827 -4.8e-4,-0.45877 0.15109,-0.59531 0.66084,-0.59531 0.50975,0 0.66132,0.13654 0.66084,0.59531 -5.8e-4,0.57224 0.0763,0.59194 1.98438,0.50827 l 1.98499,-0.0871 v 0.79708 c 0,0.67285 -0.1134,0.81012 -0.72761,0.8808 -0.56155,0.0646 -0.78537,0.27995 -0.98075,0.94361 -0.13924,0.47294 -0.3476,0.8599 -0.46302,0.8599 -0.11543,0 -0.20987,0.13044 -0.20987,0.28988 0,0.15944 -0.244,0.63256 -0.54223,1.05138 l -0.54223,0.76149 0.57579,0.77879 c 0.45016,0.60888 0.5374,0.98337 0.39989,1.7164 l -0.1759,0.93759 -0.9782,-1.08276 -0.97821,-1.08275 -1.35407,1.48999 c -1.42053,1.56311 -1.65539,1.68985 -2.172758,1.17249 z"
         id="path3770"
         inkscape:connector-curvature="0" />
      <path
         style="fill:#fed187;stroke-width:0.26458332"
         d="m 105.00338,154.51926 c 0.006,-0.55521 1.33069,-4.52328 1.63141,-4.88563 0.15515,-0.18694 0.1934,-0.33989 0.085,-0.33989 -0.10839,0 -0.0799,-0.14883 0.0634,-0.33073 0.14327,-0.1819 0.33871,-0.65815 0.43431,-1.05833 0.14115,-0.59086 0.3211,-0.72761 0.95748,-0.72761 0.63639,0 0.81634,0.13675 0.95749,0.72761 0.0956,0.40018 0.29103,0.87643 0.43431,1.05833 0.14327,0.1819 0.17181,0.33073 0.0634,0.33073 -0.1084,0 -0.0702,0.15295 0.085,0.33989 0.30072,0.36235 1.62574,4.33042 1.63141,4.88563 0.002,0.19184 -0.32996,0.33073 -0.79037,0.33073 -0.43656,0 -0.77452,-0.0893 -0.75102,-0.19844 0.0235,-0.10914 -0.0926,-0.52586 -0.25804,-0.92604 -0.25812,-0.62445 -0.45266,-0.7276 -1.37219,-0.7276 -0.91953,0 -1.11407,0.10315 -1.37219,0.7276 -0.16542,0.40018 -0.28153,0.8169 -0.25803,0.92604 0.0235,0.10914 -0.31447,0.19844 -0.75103,0.19844 -0.46041,0 -0.79233,-0.13889 -0.79037,-0.33073 z m 3.59881,-3.68487 c -0.17828,-0.89142 -0.34497,-1.18189 -0.55672,-0.97014 -0.0712,0.0712 -0.20519,0.5078 -0.29766,0.97014 -0.14903,0.74516 -0.10053,0.8406 0.42719,0.8406 0.52772,0 0.57623,-0.0954 0.42719,-0.8406 z m -8.840938,1.84602 c -0.459467,-0.45947 -0.392642,-0.85557 0.240818,-1.42743 0.30707,-0.27722 0.91449,-0.95317 1.34982,-1.50212 l 0.7915,-0.99808 -0.70182,-0.92015 c -0.38601,-0.50608 -0.60648,-0.92196 -0.48993,-0.92419 0.11655,-0.002 0.0478,-0.10798 -0.15272,-0.235 -0.5015,-0.31765 -0.13179,-0.81928 0.60381,-0.81928 0.59636,0 1.425,0.67495 1.46175,1.19062 0.037,0.51978 0.53702,0.25001 1.1986,-0.64671 1.12995,-1.53156 1.02538,-1.60225 -2.37037,-1.60225 h -3.042708 v -0.66146 c 0,-0.64675 0.0441,-0.66145 1.984378,-0.66145 1.94027,0 1.98437,-0.0147 1.98437,-0.66146 0,-0.52917 0.13229,-0.66146 0.66146,-0.66146 0.52917,0 0.66146,0.13229 0.66146,0.66146 0,0.64676 0.0441,0.66146 1.98437,0.66146 1.94028,0 1.98438,0.0147 1.98438,0.66145 0,0.52665 -0.13291,0.66146 -0.65215,0.66146 -0.5501,0 -1.17248,0.61184 -1.3457,1.32292 -0.10756,0.44154 -0.53781,1.2892 -0.97364,1.91823 -0.49794,0.71868 -0.49741,0.73703 0.0431,1.49605 0.57163,0.80279 0.66065,1.27382 0.37931,2.00699 -0.13995,0.36469 -0.33232,0.27689 -1.15629,-0.5277 l -0.98842,-0.96516 -1.29111,1.47204 c -1.34526,1.53378 -1.63578,1.68966 -2.164228,1.16122 z"
         id="path3768"
         inkscape:connector-curvature="0" />
      <path
         style="fill:#fecc78;stroke-width:0.26458332"
         d="m 105,154.53791 c 0,-0.45772 1.03145,-3.62105 1.58053,-4.8473 0.26064,-0.58208 0.5497,-1.38575 0.64235,-1.78593 0.13707,-0.59207 0.31444,-0.72761 0.95212,-0.72761 0.63769,0 0.81505,0.13554 0.95212,0.72761 0.0926,0.40018 0.38171,1.20385 0.64235,1.78593 0.54908,1.22625 1.58053,4.38958 1.58053,4.8473 0,0.17165 -0.28409,0.31208 -0.63131,0.31208 -0.46141,0 -0.74958,-0.24922 -1.07075,-0.92604 -0.39162,-0.82529 -0.55188,-0.92604 -1.47294,-0.92604 -0.92106,0 -1.08132,0.10075 -1.47294,0.92604 -0.32117,0.67682 -0.60934,0.92604 -1.07075,0.92604 -0.34722,0 -0.63131,-0.14043 -0.63131,-0.31208 z m 3.60219,-3.70352 c -0.17828,-0.89142 -0.34497,-1.18189 -0.55672,-0.97014 -0.0712,0.0712 -0.20519,0.5078 -0.29766,0.97014 -0.14903,0.74516 -0.10053,0.8406 0.42719,0.8406 0.52772,0 0.57623,-0.0954 0.42719,-0.8406 z m -8.840938,1.84602 c -0.459467,-0.45947 -0.392642,-0.85557 0.240818,-1.42743 0.30707,-0.27722 0.91449,-0.95317 1.34982,-1.50212 l 0.7915,-0.99808 -0.70182,-0.92015 c -0.38601,-0.50608 -0.60648,-0.92196 -0.48993,-0.92419 0.11655,-0.002 0.0478,-0.10798 -0.15272,-0.235 -0.5015,-0.31765 -0.13179,-0.81928 0.60381,-0.81928 0.59636,0 1.425,0.67495 1.46175,1.19062 0.037,0.51978 0.53702,0.25001 1.1986,-0.64671 1.12995,-1.53156 1.02538,-1.60225 -2.37037,-1.60225 h -3.042708 v -0.66146 c 0,-0.64675 0.0441,-0.66145 1.984378,-0.66145 1.94027,0 1.98437,-0.0147 1.98437,-0.66146 0,-0.52917 0.13229,-0.66146 0.66146,-0.66146 0.52917,0 0.66146,0.13229 0.66146,0.66146 0,0.64676 0.0441,0.66146 1.98437,0.66146 1.94028,0 1.98438,0.0147 1.98438,0.66145 0,0.52665 -0.13291,0.66146 -0.65215,0.66146 -0.5501,0 -1.17248,0.61184 -1.3457,1.32292 -0.10756,0.44154 -0.53781,1.2892 -0.97364,1.91823 -0.49794,0.71868 -0.49741,0.73703 0.0431,1.49605 0.57163,0.80279 0.66065,1.27382 0.37931,2.00699 -0.13995,0.36469 -0.33232,0.27689 -1.15629,-0.5277 l -0.98842,-0.96516 -1.29111,1.47204 c -1.34526,1.53378 -1.63578,1.68966 -2.164228,1.16122 z"
         id="path3766"
         inkscape:connector-curvature="0" />
      <path
         style="fill:#fec66a;stroke-width:0.26458332"
         d="m 105,154.51009 c 0,-0.18694 0.24329,-1.05015 0.54064,-1.91823 0.29735,-0.86808 0.59175,-1.72841 0.65422,-1.91184 0.0625,-0.18342 0.12696,-0.42155 0.14332,-0.52916 0.0164,-0.10761 0.12703,-0.31472 0.24595,-0.46025 0.11892,-0.14552 0.35151,-0.77059 0.51687,-1.38906 0.2668,-0.99787 0.38772,-1.12448 1.074,-1.12448 0.68628,0 0.80721,0.12661 1.07401,1.12448 0.16535,0.61847 0.43783,1.29161 0.60551,1.49588 0.16767,0.20426 0.26741,0.38286 0.22163,0.39687 -0.0458,0.014 -0.0212,0.20408 0.0547,0.42236 1.45185,4.17848 1.45944,4.23333 0.58602,4.23333 -0.52814,0 -0.93452,-0.40277 -1.06784,-1.05833 -0.10839,-0.53298 -0.59265,-0.79375 -1.47401,-0.79375 -0.88136,0 -1.36562,0.26077 -1.47401,0.79375 -0.0148,0.0728 -0.11865,0.34065 -0.23079,0.59531 -0.2341,0.53161 -1.4702,0.63513 -1.4702,0.12312 z m 3.60219,-3.6757 c -0.17828,-0.89142 -0.34497,-1.18189 -0.55672,-0.97014 -0.0712,0.0712 -0.20519,0.5078 -0.29766,0.97014 -0.14903,0.74516 -0.10053,0.8406 0.42719,0.8406 0.52772,0 0.57623,-0.0954 0.42719,-0.8406 z m -8.840938,1.84602 c -0.459467,-0.45947 -0.392642,-0.85557 0.240818,-1.42743 0.30707,-0.27722 0.91449,-0.95317 1.34982,-1.50212 l 0.7915,-0.99808 -0.70182,-0.92015 c -0.38601,-0.50608 -0.60648,-0.92196 -0.48993,-0.92419 0.11655,-0.002 0.0478,-0.10798 -0.15272,-0.235 -0.5015,-0.31765 -0.13179,-0.81928 0.60381,-0.81928 0.59636,0 1.425,0.67495 1.46175,1.19062 0.037,0.51978 0.53702,0.25001 1.1986,-0.64671 1.12995,-1.53156 1.02538,-1.60225 -2.37037,-1.60225 h -3.042708 v -0.66146 c 0,-0.64675 0.0441,-0.66145 1.984378,-0.66145 1.94027,0 1.98437,-0.0147 1.98437,-0.66146 0,-0.52917 0.13229,-0.66146 0.66146,-0.66146 0.52917,0 0.66146,0.13229 0.66146,0.66146 0,0.64676 0.0441,0.66146 1.98437,0.66146 1.94028,0 1.98438,0.0147 1.98438,0.66145 0,0.52665 -0.13291,0.66146 -0.65215,0.66146 -0.5501,0 -1.17248,0.61184 -1.3457,1.32292 -0.10756,0.44154 -0.53781,1.2892 -0.97364,1.91823 -0.49794,0.71868 -0.49741,0.73703 0.0431,1.49605 0.57163,0.80279 0.66065,1.27382 0.37931,2.00699 -0.13995,0.36469 -0.33232,0.27689 -1.15629,-0.5277 l -0.98842,-0.96516 -1.29111,1.47204 c -1.34526,1.53378 -1.63578,1.68966 -2.164228,1.16122 z"
         id="path3764"
         inkscape:connector-curvature="0" />
      <path
         style="fill:#b8b8b8;stroke-width:0.26458332"
         d="m 105,154.62996 c 0,-0.42819 1.14666,-3.88866 1.46136,-4.41018 0.17562,-0.29104 0.46992,-1.09471 0.65399,-1.78594 0.29615,-1.1121 0.41813,-1.25677 1.05965,-1.25677 0.64153,0 0.76351,0.14467 1.05966,1.25677 0.18407,0.69123 0.47836,1.4949 0.65398,1.78594 0.3147,0.52152 1.46136,3.98199 1.46136,4.41018 0,0.12102 -0.29425,0.22003 -0.65389,0.22003 -0.51563,0 -0.70101,-0.18182 -0.87672,-0.8599 -0.21657,-0.83579 -0.26266,-0.85989 -1.64439,-0.85989 -1.38173,0 -1.42781,0.0241 -1.64439,0.85989 -0.17571,0.67808 -0.36108,0.8599 -0.87671,0.8599 -0.35965,0 -0.6539,-0.099 -0.6539,-0.22003 z m 3.60219,-3.79557 c -0.17828,-0.89142 -0.34497,-1.18189 -0.55672,-0.97014 -0.0712,0.0712 -0.20519,0.5078 -0.29766,0.97014 -0.14903,0.74516 -0.10053,0.8406 0.42719,0.8406 0.52772,0 0.57623,-0.0954 0.42719,-0.8406 z m -8.840938,1.84602 c -0.459467,-0.45947 -0.392642,-0.85557 0.240818,-1.42743 0.30707,-0.27722 0.91449,-0.95317 1.34982,-1.50212 l 0.7915,-0.99808 -0.70182,-0.92015 c -0.38601,-0.50608 -0.60648,-0.92196 -0.48993,-0.92419 0.11655,-0.002 0.0478,-0.10798 -0.15272,-0.235 -0.5015,-0.31765 -0.13179,-0.81928 0.60381,-0.81928 0.59636,0 1.425,0.67495 1.46175,1.19062 0.037,0.51978 0.53702,0.25001 1.1986,-0.64671 1.12995,-1.53156 1.02538,-1.60225 -2.37037,-1.60225 h -3.042708 v -0.66146 c 0,-0.64675 0.0441,-0.66145 1.984378,-0.66145 1.94027,0 1.98437,-0.0147 1.98437,-0.66146 0,-0.52917 0.13229,-0.66146 0.66146,-0.66146 0.52917,0 0.66146,0.13229 0.66146,0.66146 0,0.64676 0.0441,0.66146 1.98437,0.66146 1.94028,0 1.98438,0.0147 1.98438,0.66145 0,0.52665 -0.13291,0.66146 -0.65215,0.66146 -0.5501,0 -1.17248,0.61184 -1.3457,1.32292 -0.10756,0.44154 -0.53781,1.2892 -0.97364,1.91823 -0.49794,0.71868 -0.49741,0.73703 0.0431,1.49605 0.57163,0.80279 0.66065,1.27382 0.37931,2.00699 -0.13995,0.36469 -0.33232,0.27689 -1.15629,-0.5277 l -0.98842,-0.96516 -1.29111,1.47204 c -1.34526,1.53378 -1.63578,1.68966 -2.164228,1.16122 z"
         id="path3762"
         inkscape:connector-curvature="0" />
      <path
         style="fill:#fec25d;stroke-width:0.26458332"
         d="m 105,154.62996 c 0,-0.42819 1.14666,-3.88866 1.46136,-4.41018 0.17562,-0.29104 0.46992,-1.09471 0.65399,-1.78594 0.29615,-1.1121 0.41813,-1.25677 1.05965,-1.25677 0.64153,0 0.76351,0.14467 1.05966,1.25677 0.18407,0.69123 0.47836,1.4949 0.65398,1.78594 0.3147,0.52152 1.46136,3.98199 1.46136,4.41018 0,0.12102 -0.29425,0.22003 -0.65389,0.22003 -0.51563,0 -0.70101,-0.18182 -0.87672,-0.8599 -0.21657,-0.83579 -0.26266,-0.85989 -1.64439,-0.85989 -1.38173,0 -1.42781,0.0241 -1.64439,0.85989 -0.17571,0.67808 -0.36108,0.8599 -0.87671,0.8599 -0.35965,0 -0.6539,-0.099 -0.6539,-0.22003 z m 3.60219,-3.79557 c -0.17828,-0.89142 -0.34497,-1.18189 -0.55672,-0.97014 -0.0712,0.0712 -0.20519,0.5078 -0.29766,0.97014 -0.14903,0.74516 -0.10053,0.8406 0.42719,0.8406 0.52772,0 0.57623,-0.0954 0.42719,-0.8406 z m -8.910009,1.60416 c -0.259895,-0.48561 -0.163274,-0.7036 0.732969,-1.65364 1.58177,-1.67672 1.76663,-1.97432 1.46044,-2.35107 -0.14783,-0.1819 -0.51965,-0.78093 -0.82626,-1.33117 -0.46257,-0.83012 -0.49252,-1.02537 -0.17594,-1.14686 0.68921,-0.26447 1.3287,0.0251 1.68164,0.76148 0.33909,0.70748 1.11206,1.0101 1.11206,0.43537 0,-0.15895 0.23812,-0.59172 0.52916,-0.96172 1.00864,-1.28228 0.80535,-1.39512 -2.51354,-1.39512 h -3.042708 v -0.66146 c 0,-0.64675 0.0441,-0.66145 1.984378,-0.66145 1.94027,0 1.98437,-0.0147 1.98437,-0.66146 0,-0.52917 0.13229,-0.66146 0.66146,-0.66146 0.52917,0 0.66146,0.13229 0.66146,0.66146 0,0.64676 0.0441,0.66146 1.98437,0.66146 1.94028,0 1.98438,0.0147 1.98438,0.66145 0,0.54286 -0.13046,0.6632 -0.72761,0.67114 -0.64346,0.009 -0.83975,0.24462 -1.69735,2.04119 l -0.96975,2.03151 0.50673,0.71163 c 0.53304,0.7486 0.61623,1.22735 0.33886,1.95018 -0.14002,0.36489 -0.33093,0.27825 -1.15067,-0.5222 l -0.98279,-0.95967 -1.34339,1.46988 c -0.73886,0.80844 -1.46703,1.46989 -1.61815,1.46989 -0.15112,0 -0.409474,-0.25171 -0.574119,-0.55936 z"
         id="path3760"
         inkscape:connector-curvature="0" />
      <path
         style="fill:#feb947;stroke-width:0.26458332"
         d="m 105,154.59465 c 0,-0.2472 0.65871,-2.3775 0.9846,-3.18424 0.0882,-0.21828 0.17483,-0.45641 0.19255,-0.52917 0.0177,-0.0728 0.15853,-0.37042 0.3129,-0.66146 0.15438,-0.29104 0.43352,-1.09471 0.62033,-1.78594 0.30022,-1.11089 0.42379,-1.25677 1.06462,-1.25677 0.64083,0 0.7644,0.14588 1.06463,1.25677 0.1868,0.69123 0.46595,1.4949 0.62032,1.78594 0.15437,0.29104 0.29518,0.5887 0.3129,0.66146 0.0177,0.0728 0.10437,0.31089 0.19255,0.52917 0.32589,0.80674 0.9846,2.93704 0.9846,3.18424 0,0.14044 -0.29425,0.25534 -0.65389,0.25534 -0.51563,0 -0.70101,-0.18182 -0.87672,-0.8599 -0.21657,-0.83579 -0.26266,-0.85989 -1.64439,-0.85989 -1.38173,0 -1.42781,0.0241 -1.64439,0.85989 -0.17571,0.67808 -0.36108,0.8599 -0.87671,0.8599 -0.35965,0 -0.6539,-0.1149 -0.6539,-0.25534 z m 3.60219,-3.76026 c -0.17828,-0.89142 -0.34497,-1.18189 -0.55672,-0.97014 -0.0712,0.0712 -0.20519,0.5078 -0.29766,0.97014 -0.14903,0.74516 -0.10053,0.8406 0.42719,0.8406 0.52772,0 0.57623,-0.0954 0.42719,-0.8406 z m -8.910009,1.60416 c -0.259895,-0.48561 -0.163274,-0.7036 0.732969,-1.65364 1.58177,-1.67672 1.76663,-1.97432 1.46044,-2.35107 -0.14783,-0.1819 -0.51965,-0.78093 -0.82626,-1.33117 -0.46257,-0.83012 -0.49252,-1.02537 -0.17594,-1.14686 0.68921,-0.26447 1.3287,0.0251 1.68164,0.76148 0.33909,0.70748 1.11206,1.0101 1.11206,0.43537 0,-0.15895 0.23812,-0.59172 0.52916,-0.96172 1.00864,-1.28228 0.80535,-1.39512 -2.51354,-1.39512 h -3.042708 v -0.66146 c 0,-0.64675 0.0441,-0.66145 1.984378,-0.66145 1.94027,0 1.98437,-0.0147 1.98437,-0.66146 0,-0.52917 0.13229,-0.66146 0.66146,-0.66146 0.52917,0 0.66146,0.13229 0.66146,0.66146 0,0.64676 0.0441,0.66146 1.98437,0.66146 1.94028,0 1.98438,0.0147 1.98438,0.66145 0,0.54286 -0.13046,0.6632 -0.72761,0.67114 -0.64346,0.009 -0.83975,0.24462 -1.69735,2.04119 l -0.96975,2.03151 0.50673,0.71163 c 0.53304,0.7486 0.61623,1.22735 0.33886,1.95018 -0.14002,0.36489 -0.33093,0.27825 -1.15067,-0.5222 l -0.98279,-0.95967 -1.34339,1.46988 c -0.73886,0.80844 -1.46703,1.46989 -1.61815,1.46989 -0.15112,0 -0.409474,-0.25171 -0.574119,-0.55936 z"
         id="path3758"
         inkscape:connector-curvature="0" />
      <path
         style="fill:#a6a6a6;stroke-width:0.26458332"
         d="m 105.13724,153.99009 c 0.0986,-0.47294 0.35114,-1.13115 0.56119,-1.46268 0.21004,-0.33153 0.31039,-0.71848 0.22299,-0.85989 -0.0874,-0.14141 -0.059,-0.25711 0.063,-0.25711 0.12204,0 0.50513,-0.9525 0.85131,-2.11667 0.58385,-1.96347 0.68078,-2.11667 1.33926,-2.11667 0.65848,0 0.75541,0.1532 1.33926,2.11667 0.34618,1.16417 0.72927,2.11667 0.85132,2.11667 0.12204,0 0.1504,0.1157 0.063,0.25711 -0.0874,0.14141 0.013,0.52836 0.223,0.85989 0.21004,0.33153 0.46257,0.98974 0.56118,1.46268 0.16519,0.79227 0.1262,0.8599 -0.49563,0.8599 -0.53935,0 -0.71967,-0.17272 -0.89774,-0.8599 -0.21657,-0.83579 -0.26266,-0.85989 -1.64439,-0.85989 -1.38173,0 -1.42781,0.0241 -1.64439,0.85989 -0.17806,0.68718 -0.35839,0.8599 -0.89774,0.8599 -0.62183,0 -0.66081,-0.0676 -0.49563,-0.8599 z m 3.46495,-3.1557 c -0.17828,-0.89142 -0.34497,-1.18189 -0.55672,-0.97014 -0.0712,0.0712 -0.20519,0.5078 -0.29766,0.97014 -0.14903,0.74516 -0.10053,0.8406 0.42719,0.8406 0.52772,0 0.57623,-0.0954 0.42719,-0.8406 z m -8.910009,1.60416 c -0.259895,-0.48561 -0.163274,-0.7036 0.732969,-1.65364 1.58177,-1.67672 1.76663,-1.97432 1.46044,-2.35107 -0.14783,-0.1819 -0.51965,-0.78093 -0.82626,-1.33117 -0.46257,-0.83012 -0.49252,-1.02537 -0.17594,-1.14686 0.68921,-0.26447 1.3287,0.0251 1.68164,0.76148 0.33909,0.70748 1.11206,1.0101 1.11206,0.43537 0,-0.15895 0.23812,-0.59172 0.52916,-0.96172 1.00864,-1.28228 0.80535,-1.39512 -2.51354,-1.39512 h -3.042708 v -0.66146 c 0,-0.64675 0.0441,-0.66145 1.984378,-0.66145 1.94027,0 1.98437,-0.0147 1.98437,-0.66146 0,-0.52917 0.13229,-0.66146 0.66146,-0.66146 0.52917,0 0.66146,0.13229 0.66146,0.66146 0,0.64676 0.0441,0.66146 1.98437,0.66146 1.94028,0 1.98438,0.0147 1.98438,0.66145 0,0.54286 -0.13046,0.6632 -0.72761,0.67114 -0.64346,0.009 -0.83975,0.24462 -1.69735,2.04119 l -0.96975,2.03151 0.50673,0.71163 c 0.53304,0.7486 0.61623,1.22735 0.33886,1.95018 -0.14002,0.36489 -0.33093,0.27825 -1.15067,-0.5222 l -0.98279,-0.95967 -1.34339,1.46988 c -0.73886,0.80844 -1.46703,1.46989 -1.61815,1.46989 -0.15112,0 -0.409474,-0.25171 -0.574119,-0.55936 z"
         id="path3756"
         inkscape:connector-curvature="0" />
      <path
         style="fill:#feb336;stroke-width:0.26458332"
         d="m 105.13724,153.99009 c 0.0986,-0.47294 0.35114,-1.13115 0.56119,-1.46268 0.21004,-0.33153 0.31039,-0.71848 0.22299,-0.85989 -0.0874,-0.14141 -0.059,-0.25711 0.063,-0.25711 0.12204,0 0.50513,-0.9525 0.85131,-2.11667 0.58385,-1.96347 0.68078,-2.11667 1.33926,-2.11667 0.65848,0 0.75541,0.1532 1.33926,2.11667 0.34618,1.16417 0.72927,2.11667 0.85132,2.11667 0.12204,0 0.1504,0.1157 0.063,0.25711 -0.0874,0.14141 0.013,0.52836 0.223,0.85989 0.21004,0.33153 0.46257,0.98974 0.56118,1.46268 0.16519,0.79227 0.1262,0.8599 -0.49563,0.8599 -0.53935,0 -0.71967,-0.17272 -0.89774,-0.8599 -0.21657,-0.83579 -0.26266,-0.85989 -1.64439,-0.85989 -1.38173,0 -1.42781,0.0241 -1.64439,0.85989 -0.17806,0.68718 -0.35839,0.8599 -0.89774,0.8599 -0.62183,0 -0.66081,-0.0676 -0.49563,-0.8599 z m 3.46495,-3.1557 c -0.17828,-0.89142 -0.34497,-1.18189 -0.55672,-0.97014 -0.0712,0.0712 -0.20519,0.5078 -0.29766,0.97014 -0.14903,0.74516 -0.10053,0.8406 0.42719,0.8406 0.52772,0 0.57623,-0.0954 0.42719,-0.8406 z m -8.853003,1.60144 c -0.317903,-0.50904 -0.253876,-0.66506 0.678633,-1.65364 1.79983,-1.90806 1.77223,-1.80698 0.89813,-3.28945 -0.83664,-1.41895 -0.81794,-1.63858 0.13948,-1.63858 0.4108,0 0.74486,0.25969 1.02103,0.79375 0.22576,0.43656 0.57398,0.79375 0.77383,0.79375 0.34248,0 1.47513,-1.83465 1.47513,-2.3894 0,-0.15066 -1.25507,-0.25644 -3.04271,-0.25644 h -3.042708 v -0.66146 c 0,-0.64675 0.0441,-0.66145 1.984378,-0.66145 1.94027,0 1.98437,-0.0147 1.98437,-0.66146 0,-0.52917 0.13229,-0.66146 0.66146,-0.66146 0.52917,0 0.66146,0.13229 0.66146,0.66146 0,0.64676 0.0441,0.66146 1.98437,0.66146 1.94028,0 1.98438,0.0147 1.98438,0.66145 0,0.56302 -0.12182,0.66146 -0.81852,0.66146 -0.61939,0 -0.85534,0.14081 -0.96988,0.57878 -0.0832,0.31833 -0.48711,1.24107 -0.89748,2.05053 l -0.74612,1.47173 0.52537,0.7169 c 0.55192,0.7531 0.63529,1.20235 0.35751,1.92625 -0.14002,0.36489 -0.33093,0.27825 -1.15067,-0.5222 l -0.98279,-0.95967 -1.34339,1.46988 c -0.73886,0.80844 -1.44258,1.46989 -1.56382,1.46989 -0.12123,0 -0.378381,-0.25294 -0.571443,-0.56208 z"
         id="path3754"
         inkscape:connector-curvature="0" />
      <path
         style="fill:#fead27;stroke-width:0.26458332"
         d="m 105.13724,153.99009 c 0.0986,-0.47294 0.32891,-1.09802 0.51179,-1.38906 0.18288,-0.29104 0.65987,-1.60073 1.05998,-2.91042 0.68925,-2.25611 0.76628,-2.38124 1.46599,-2.38124 0.69971,0 0.77675,0.12513 1.46599,2.38124 0.40012,1.30969 0.87711,2.61938 1.05998,2.91042 0.18288,0.29104 0.41318,0.91612 0.51179,1.38906 0.16532,0.79293 0.12653,0.8599 -0.49815,0.8599 -0.5205,0 -0.71771,-0.16856 -0.85126,-0.7276 -0.26513,-1.10986 -0.6045,-1.38907 -1.68835,-1.38907 -1.08385,0 -1.42322,0.27921 -1.68835,1.38907 -0.13355,0.55904 -0.33075,0.7276 -0.85125,0.7276 -0.62468,0 -0.66348,-0.067 -0.49816,-0.8599 z m 3.44049,-3.30729 c -0.1898,-1.01607 -0.31995,-1.29663 -0.51142,-1.10243 -0.0598,0.0606 -0.1921,0.55673 -0.29403,1.10243 -0.16896,0.90451 -0.13337,0.99219 0.40272,0.99219 0.5361,0 0.57168,-0.0877 0.40273,-0.99219 z m -8.828543,1.75303 c -0.317903,-0.50904 -0.253876,-0.66506 0.678633,-1.65364 1.79983,-1.90806 1.77223,-1.80698 0.89813,-3.28945 -0.83664,-1.41895 -0.81794,-1.63858 0.13948,-1.63858 0.4108,0 0.74486,0.25969 1.02103,0.79375 0.22576,0.43656 0.57398,0.79375 0.77383,0.79375 0.34248,0 1.47513,-1.83465 1.47513,-2.3894 0,-0.15066 -1.25507,-0.25644 -3.04271,-0.25644 h -3.042708 v -0.66146 c 0,-0.64675 0.0441,-0.66145 1.984378,-0.66145 1.94027,0 1.98437,-0.0147 1.98437,-0.66146 0,-0.52917 0.13229,-0.66146 0.66146,-0.66146 0.52917,0 0.66146,0.13229 0.66146,0.66146 0,0.64676 0.0441,0.66146 1.98437,0.66146 1.94028,0 1.98438,0.0147 1.98438,0.66145 0,0.56302 -0.12182,0.66146 -0.81852,0.66146 -0.61939,0 -0.85534,0.14081 -0.96988,0.57878 -0.0832,0.31833 -0.48711,1.24107 -0.89748,2.05053 l -0.74612,1.47173 0.52537,0.7169 c 0.55192,0.7531 0.63529,1.20235 0.35751,1.92625 -0.14002,0.36489 -0.33093,0.27825 -1.15067,-0.5222 l -0.98279,-0.95967 -1.34339,1.46988 c -0.73886,0.80844 -1.44258,1.46989 -1.56382,1.46989 -0.12123,0 -0.378381,-0.25294 -0.571443,-0.56208 z"
         id="path3752"
         inkscape:connector-curvature="0" />
      <path
         style="fill:#969696;stroke-width:0.26458332"
         d="m 105.14451,153.99009 c 0.10261,-0.47294 0.32043,-0.94737 0.48404,-1.05428 0.16362,-0.10691 0.19362,-0.19621 0.0667,-0.19844 -0.12696,-0.002 -0.11322,-0.15287 0.0305,-0.33478 0.14376,-0.1819 0.58224,-1.37252 0.9744,-2.64583 0.68043,-2.20931 0.74783,-2.3151 1.47485,-2.3151 0.72703,0 0.79442,0.10579 1.47486,2.3151 0.39216,1.27331 0.83063,2.46393 0.97439,2.64583 0.14376,0.18191 0.1575,0.33256 0.0305,0.33478 -0.12695,0.002 -0.097,0.0915 0.0667,0.19844 0.16362,0.10691 0.38144,0.58134 0.48404,1.05428 0.17106,0.78848 0.13226,0.8599 -0.46724,0.8599 -0.49225,0 -0.69883,-0.17942 -0.83604,-0.72612 -0.27586,-1.0991 -0.63787,-1.39055 -1.72721,-1.39055 -1.08934,0 -1.45135,0.29145 -1.7272,1.39055 -0.13722,0.5467 -0.34379,0.72612 -0.83605,0.72612 -0.59949,0 -0.6383,-0.0714 -0.46724,-0.8599 z m 3.82424,-2.69636 c 0,-0.20969 -0.11906,-0.45484 -0.26458,-0.54478 -0.14552,-0.0899 -0.26458,-0.39462 -0.26458,-0.67707 0,-0.28246 -0.11907,-0.51356 -0.26459,-0.51356 -0.14552,0 -0.26458,0.2311 -0.26458,0.51356 0,0.28245 -0.11906,0.58713 -0.26458,0.67707 -0.58024,0.3586 -0.25599,0.92604 0.52916,0.92604 0.51472,0 0.79375,-0.13403 0.79375,-0.38126 z m -9.219563,1.1421 c -0.317903,-0.50904 -0.253876,-0.66506 0.678633,-1.65364 1.79983,-1.90806 1.77223,-1.80698 0.89813,-3.28945 -0.83664,-1.41895 -0.81794,-1.63858 0.13948,-1.63858 0.4108,0 0.74486,0.25969 1.02103,0.79375 0.22576,0.43656 0.57398,0.79375 0.77383,0.79375 0.34248,0 1.47513,-1.83465 1.47513,-2.3894 0,-0.15066 -1.25507,-0.25644 -3.04271,-0.25644 h -3.042708 v -0.66146 c 0,-0.64675 0.0441,-0.66145 1.984378,-0.66145 1.94027,0 1.98437,-0.0147 1.98437,-0.66146 0,-0.52917 0.13229,-0.66146 0.66146,-0.66146 0.52917,0 0.66146,0.13229 0.66146,0.66146 0,0.64676 0.0441,0.66146 1.98437,0.66146 1.94028,0 1.98438,0.0147 1.98438,0.66145 0,0.56302 -0.12182,0.66146 -0.81852,0.66146 -0.61939,0 -0.85534,0.14081 -0.96988,0.57878 -0.0832,0.31833 -0.48711,1.24107 -0.89748,2.05053 l -0.74612,1.47173 0.52537,0.7169 c 0.55192,0.7531 0.63529,1.20235 0.35751,1.92625 -0.14002,0.36489 -0.33093,0.27825 -1.15067,-0.5222 l -0.98279,-0.95967 -1.34339,1.46988 c -0.73886,0.80844 -1.44258,1.46989 -1.56382,1.46989 -0.12123,0 -0.378381,-0.25294 -0.571443,-0.56208 z"
         id="path3750"
         inkscape:connector-curvature="0" />
      <path
         style="fill:#fea716;stroke-width:0.26458332"
         d="m 105.14451,153.99009 c 0.10261,-0.47294 0.32043,-0.94737 0.48404,-1.05428 0.16362,-0.10691 0.19362,-0.19621 0.0667,-0.19844 -0.12696,-0.002 -0.11322,-0.15287 0.0305,-0.33478 0.14376,-0.1819 0.58224,-1.37252 0.9744,-2.64583 0.68043,-2.20931 0.74783,-2.3151 1.47485,-2.3151 0.72703,0 0.79442,0.10579 1.47486,2.3151 0.39216,1.27331 0.83063,2.46393 0.97439,2.64583 0.14376,0.18191 0.1575,0.33256 0.0305,0.33478 -0.12695,0.002 -0.097,0.0915 0.0667,0.19844 0.16362,0.10691 0.38144,0.58134 0.48404,1.05428 0.17106,0.78848 0.13226,0.8599 -0.46724,0.8599 -0.49225,0 -0.69883,-0.17942 -0.83604,-0.72612 -0.27586,-1.0991 -0.63787,-1.39055 -1.72721,-1.39055 -1.08934,0 -1.45135,0.29145 -1.7272,1.39055 -0.13722,0.5467 -0.34379,0.72612 -0.83605,0.72612 -0.59949,0 -0.6383,-0.0714 -0.46724,-0.8599 z m 3.82424,-2.69636 c 0,-0.20969 -0.11906,-0.45484 -0.26458,-0.54478 -0.14552,-0.0899 -0.26458,-0.39462 -0.26458,-0.67707 0,-0.28246 -0.11907,-0.51356 -0.26459,-0.51356 -0.14552,0 -0.26458,0.2311 -0.26458,0.51356 0,0.28245 -0.11906,0.58713 -0.26458,0.67707 -0.58024,0.3586 -0.25599,0.92604 0.52916,0.92604 0.51472,0 0.79375,-0.13403 0.79375,-0.38126 z m -9.126838,1.17643 c -0.46598,-0.5149 -0.444438,-0.56282 0.885038,-1.96854 0.74945,-0.79243 1.36264,-1.49529 1.36264,-1.56191 0,-0.0666 -0.29623,-0.63929 -0.65828,-1.27261 -0.82939,-1.45083 -0.83139,-1.81294 -0.01,-1.81294 0.4598,0 0.77684,0.23626 1.06513,0.79375 0.22576,0.43656 0.58358,0.79375 0.79517,0.79375 0.36338,0 1.45379,-1.77814 1.45379,-2.37071 0,-0.1745 -1.11291,-0.27513 -3.04271,-0.27513 h -3.042708 v -0.66146 c 0,-0.64675 0.0441,-0.66145 1.984378,-0.66145 1.94027,0 1.98437,-0.0147 1.98437,-0.66146 0,-0.52917 0.13229,-0.66146 0.66146,-0.66146 0.52917,0 0.66146,0.13229 0.66146,0.66146 0,0.64676 0.0441,0.66146 1.98437,0.66146 1.94028,0 1.98438,0.0147 1.98438,0.66145 0,0.55961 -0.1231,0.66146 -0.79942,0.66146 -0.627,0 -0.86057,0.15694 -1.08288,0.72761 -0.1559,0.40018 -0.57582,1.31565 -0.93316,2.03437 l -0.64971,1.30677 0.54196,0.73304 c 0.56766,0.7678 0.6536,1.21401 0.37409,1.9424 -0.13967,0.36397 -0.33745,0.27188 -1.17713,-0.54804 l -1.00925,-0.9855 -1.19362,1.29728 c -0.65649,0.7135 -1.19835,1.38658 -1.20413,1.49572 -0.019,0.35906 -0.44946,0.20749 -0.935258,-0.32931 z"
         id="path3748"
         inkscape:connector-curvature="0" />
      <path
         style="fill:#fea208;stroke-width:0.26458332"
         d="m 105,154.46873 c 0,-0.20969 0.12718,-0.45986 0.28262,-0.55593 0.15544,-0.0961 0.21871,-0.34122 0.1406,-0.54478 -0.0781,-0.20356 -0.0347,-0.37011 0.0964,-0.37011 0.13115,0 0.31419,-0.26789 0.40676,-0.59532 0.0926,-0.32742 0.47178,-1.57757 0.84269,-2.77812 0.63184,-2.04507 0.72056,-2.18281 1.40591,-2.18281 0.68535,0 0.77407,0.13774 1.40591,2.18281 0.37092,1.20055 0.75013,2.4507 0.8427,2.77812 0.0926,0.32743 0.2756,0.59532 0.40675,0.59532 0.13115,0 0.17454,0.16655 0.0964,0.37011 -0.0781,0.20356 -0.0148,0.44871 0.14059,0.54478 0.52763,0.3261 0.29932,0.93719 -0.35015,0.93719 -0.46933,0 -0.67985,-0.18756 -0.81502,-0.72612 -0.27586,-1.0991 -0.63787,-1.39055 -1.72721,-1.39055 -1.08934,0 -1.45135,0.29145 -1.7272,1.39055 -0.13517,0.53856 -0.34569,0.72612 -0.81502,0.72612 -0.37456,0 -0.63278,-0.15558 -0.63278,-0.38126 z m 3.96875,-3.32291 c 0,-0.29104 -0.10583,-0.52916 -0.23518,-0.52916 -0.12936,0 -0.21865,-0.20836 -0.19844,-0.46302 0.0202,-0.25467 -0.14185,-0.46303 -0.36013,-0.46303 -0.21828,0 -0.38034,0.20836 -0.36013,0.46303 0.0202,0.25466 -0.0691,0.46302 -0.19843,0.46302 -0.12935,0 -0.23519,0.23812 -0.23519,0.52916 0,0.41158 0.17639,0.52917 0.79375,0.52917 0.61736,0 0.79375,-0.11759 0.79375,-0.52917 z m -9.126838,1.32434 c -0.46598,-0.5149 -0.444438,-0.56282 0.885038,-1.96854 0.74945,-0.79243 1.36264,-1.49529 1.36264,-1.56191 0,-0.0666 -0.29623,-0.63929 -0.65828,-1.27261 -0.82939,-1.45083 -0.83139,-1.81294 -0.01,-1.81294 0.4598,0 0.77684,0.23626 1.06513,0.79375 0.22576,0.43656 0.58358,0.79375 0.79517,0.79375 0.36338,0 1.45379,-1.77814 1.45379,-2.37071 0,-0.1745 -1.11291,-0.27513 -3.04271,-0.27513 h -3.042708 v -0.66146 c 0,-0.64675 0.0441,-0.66145 1.984378,-0.66145 1.94027,0 1.98437,-0.0147 1.98437,-0.66146 0,-0.52917 0.13229,-0.66146 0.66146,-0.66146 0.52917,0 0.66146,0.13229 0.66146,0.66146 0,0.64676 0.0441,0.66146 1.98437,0.66146 1.94028,0 1.98438,0.0147 1.98438,0.66145 0,0.55961 -0.1231,0.66146 -0.79942,0.66146 -0.627,0 -0.86057,0.15694 -1.08288,0.72761 -0.1559,0.40018 -0.57582,1.31565 -0.93316,2.03437 l -0.64971,1.30677 0.54196,0.73304 c 0.56766,0.7678 0.6536,1.21401 0.37409,1.9424 -0.13967,0.36397 -0.33745,0.27188 -1.17713,-0.54804 l -1.00925,-0.9855 -1.19362,1.29728 c -0.65649,0.7135 -1.19835,1.38658 -1.20413,1.49572 -0.019,0.35906 -0.44946,0.20749 -0.935258,-0.32931 z"
         id="path3746"
         inkscape:connector-curvature="0" />
      <path
         style="fill:#fe9f00;stroke-width:0.26458332"
         d="m 105.16891,154.45311 c -0.0838,-0.21828 -0.066,-0.39687 0.0396,-0.39687 0.10552,0 0.32899,-0.44648 0.4966,-0.99219 1.81936,-5.92342 1.68712,-5.62239 2.46993,-5.62239 0.78282,0 0.65058,-0.30103 2.46993,5.62239 0.16761,0.54571 0.39482,0.99219 0.50491,0.99219 0.11009,0 0.20016,0.17859 0.20016,0.39687 0,0.2398 -0.24523,0.39688 -0.61958,0.39688 -0.4936,0 -0.68404,-0.21518 -0.93666,-1.05833 -0.31409,-1.04834 -0.32937,-1.05834 -1.61876,-1.05834 -1.28938,0 -1.30467,0.01 -1.61876,1.05834 -0.32758,1.09338 -1.08332,1.45371 -1.38733,0.66145 z m 3.7521,-3.24114 c 0.0465,-0.32742 -0.0296,-0.59531 -0.16904,-0.59531 -0.13947,0 -0.23705,-0.20836 -0.21684,-0.46302 0.0202,-0.25467 -0.14185,-0.46303 -0.36013,-0.46303 -0.21828,0 -0.38034,0.20836 -0.36013,0.46303 0.0202,0.25466 -0.0691,0.46302 -0.19843,0.46302 -0.2796,0 -0.31618,0.88914 -0.0476,1.15769 0.3906,0.39059 1.26873,0.0254 1.35221,-0.56238 z m -9.079098,1.25819 c -0.46598,-0.5149 -0.444438,-0.56282 0.885038,-1.96854 0.74945,-0.79243 1.36264,-1.49529 1.36264,-1.56191 0,-0.0666 -0.29623,-0.63929 -0.65828,-1.27261 -0.82939,-1.45083 -0.83139,-1.81294 -0.01,-1.81294 0.4598,0 0.77684,0.23626 1.06513,0.79375 0.22576,0.43656 0.58358,0.79375 0.79517,0.79375 0.36338,0 1.45379,-1.77814 1.45379,-2.37071 0,-0.1745 -1.11291,-0.27513 -3.04271,-0.27513 h -3.042708 v -0.66146 c 0,-0.64675 0.0441,-0.66145 1.984378,-0.66145 1.94027,0 1.98437,-0.0147 1.98437,-0.66146 0,-0.52917 0.13229,-0.66146 0.66146,-0.66146 0.52917,0 0.66146,0.13229 0.66146,0.66146 0,0.64676 0.0441,0.66146 1.98437,0.66146 1.94028,0 1.98438,0.0147 1.98438,0.66145 0,0.55961 -0.1231,0.66146 -0.79942,0.66146 -0.627,0 -0.86057,0.15694 -1.08288,0.72761 -0.1559,0.40018 -0.57582,1.31565 -0.93316,2.03437 l -0.64971,1.30677 0.54196,0.73304 c 0.56766,0.7678 0.6536,1.21401 0.37409,1.9424 -0.13967,0.36397 -0.33745,0.27188 -1.17713,-0.54804 l -1.00925,-0.9855 -1.19362,1.29728 c -0.65649,0.7135 -1.19835,1.38658 -1.20413,1.49572 -0.019,0.35906 -0.44946,0.20749 -0.935258,-0.32931 z"
         id="path3744"
         inkscape:connector-curvature="0" />
      <path
         style="fill:#868686;stroke-width:0.26458332"
         d="m 99.841912,152.47016 c -0.46598,-0.5149 -0.444438,-0.56282 0.885038,-1.96854 0.74945,-0.79243 1.36264,-1.49529 1.36264,-1.56191 0,-0.0666 -0.29623,-0.63929 -0.65828,-1.27261 -0.82939,-1.45083 -0.83139,-1.81294 -0.01,-1.81294 0.4598,0 0.77684,0.23626 1.06513,0.79375 0.22576,0.43656 0.58358,0.79375 0.79517,0.79375 0.36338,0 1.45379,-1.77814 1.45379,-2.37071 0,-0.1745 -1.11291,-0.27513 -3.04271,-0.27513 h -3.042708 v -0.66146 c 0,-0.64675 0.0441,-0.66145 1.984378,-0.66145 1.94027,0 1.98437,-0.0147 1.98437,-0.66146 0,-0.52917 0.13229,-0.66146 0.66146,-0.66146 0.52917,0 0.66146,0.13229 0.66146,0.66146 0,0.64676 0.0441,0.66146 1.98437,0.66146 1.94028,0 1.98438,0.0147 1.98438,0.66145 0,0.55961 -0.1231,0.66146 -0.79942,0.66146 -0.627,0 -0.86057,0.15694 -1.08288,0.72761 -0.1559,0.40018 -0.57582,1.31565 -0.93316,2.03437 l -0.64971,1.30677 0.54196,0.73304 c 0.56766,0.7678 0.6536,1.21401 0.37409,1.9424 -0.13967,0.36397 -0.33745,0.27188 -1.17713,-0.54804 l -1.00925,-0.9855 -1.19362,1.29728 c -0.65649,0.7135 -1.19835,1.38658 -1.20413,1.49572 -0.019,0.35906 -0.44946,0.20749 -0.935258,-0.32931 z"
         id="path3742"
         inkscape:connector-curvature="0" />
      <path
         style="fill:#767676;stroke-width:0.26458332"
         d="m 99.86568,152.49642 c -0.497521,-0.54975 -0.490905,-0.56508 0.86127,-1.9948 0.74945,-0.79243 1.36264,-1.50322 1.36264,-1.57953 0,-0.0763 -0.29766,-0.67189 -0.66146,-1.32353 -0.81662,-1.46269 -0.82583,-1.7444 -0.057,-1.7444 0.39099,0 0.76998,0.28028 1.07329,0.79375 0.25789,0.43656 0.63832,0.79375 0.84542,0.79375 0.35724,0 1.44563,-1.78487 1.44563,-2.37071 0,-0.1745 -1.11291,-0.27513 -3.04271,-0.27513 h -3.042708 v -0.66146 c 0,-0.64675 0.0441,-0.66145 1.984378,-0.66145 1.94027,0 1.98437,-0.0147 1.98437,-0.66146 0,-0.52917 0.13229,-0.66146 0.66146,-0.66146 0.52917,0 0.66146,0.13229 0.66146,0.66146 0,0.64676 0.0441,0.66146 1.98437,0.66146 1.94028,0 1.98438,0.0147 1.98438,0.66145 0,0.55961 -0.1231,0.66146 -0.79942,0.66146 -0.627,0 -0.86057,0.15694 -1.08288,0.72761 -0.1559,0.40018 -0.57582,1.31565 -0.93316,2.03437 l -0.64971,1.30677 0.54196,0.73304 c 0.5723,0.77407 0.6777,1.4537 0.3143,2.02669 -0.16376,0.25821 -0.42962,0.10693 -1.0462,-0.59531 -0.45465,-0.51783 -0.89498,-0.9415 -0.9785,-0.9415 -0.0835,0 -0.77238,0.66666 -1.53081,1.48147 l -1.37895,1.48147 z"
         id="path3740"
         inkscape:connector-curvature="0" />
      <path
         style="fill:#656565;stroke-width:0.26458332"
         d="m 99.86705,152.49928 c -0.49947,-0.55324 -0.493872,-0.56625 0.8599,-1.99766 0.74945,-0.79243 1.36264,-1.50322 1.36264,-1.57953 0,-0.0763 -0.29766,-0.67189 -0.66146,-1.32353 -0.36381,-0.65163 -0.66146,-1.3107 -0.66146,-1.46459 0,-0.1539 0.29765,-0.27981 0.66146,-0.27981 0.3638,0 0.66205,0.0893 0.66277,0.19843 7.1e-4,0.10914 0.27758,0.54369 0.61523,0.96567 l 0.61391,0.76722 0.55781,-0.78336 c 0.30679,-0.43085 0.63816,-1.10352 0.73637,-1.49483 l 0.17856,-0.71147 h -3.07139 -3.071388 v -0.66146 c 0,-0.64675 0.0441,-0.66145 1.984378,-0.66145 1.94027,0 1.98437,-0.0147 1.98437,-0.66146 0,-0.52917 0.13229,-0.66146 0.66146,-0.66146 0.52917,0 0.66146,0.13229 0.66146,0.66146 0,0.6473 0.0429,0.66146 2.00278,0.66146 1.92561,0 1.99952,0.0229 1.91822,0.59531 -0.061,0.42956 -0.29111,0.61901 -0.82646,0.68041 -0.51678,0.0593 -0.82602,0.30014 -1.01911,0.79375 -0.15246,0.38976 -0.58288,1.33438 -0.9565,2.09916 l -0.6793,1.3905 0.57394,0.61092 c 0.59881,0.63741 0.7255,1.38316 0.33869,1.9936 -0.17322,0.27337 -0.40776,0.13208 -0.98813,-0.5953 -0.41856,-0.52456 -0.86782,-0.95376 -0.99837,-0.95376 -0.13055,-1e-5 -0.84492,0.66794 -1.5875,1.48432 l -1.35014,1.48432 z"
         id="path3738"
         inkscape:connector-curvature="0" />
      <path
         style="fill:#595959;stroke-width:0.26458332"
         d="m 99.858067,152.48935 c -0.511652,-0.56671 -0.511519,-0.567 0.913693,-2.01014 l 1.42541,-1.44334 -0.71525,-1.32434 c -0.39339,-0.72838 -0.71525,-1.43312 -0.71525,-1.56608 0,-0.48221 1.20705,0.0549 1.87461,0.83424 l 0.68399,0.79846 0.58871,-0.82678 c 0.3238,-0.45473 0.61132,-1.15552 0.63894,-1.55731 l 0.0502,-0.73053 -2.97657,-0.0748 c -2.758299,-0.0693 -2.976558,-0.11298 -2.976558,-0.59531 0,-0.47135 0.187401,-0.5205 1.984378,-0.5205 1.94027,0 1.98437,-0.0147 1.98437,-0.66146 0,-0.52917 0.13229,-0.66146 0.66146,-0.66146 0.52917,0 0.66146,0.13229 0.66146,0.66146 0,0.64676 0.0441,0.66146 1.98437,0.66146 1.78527,0 1.98438,0.0513 1.98438,0.51159 0,0.35974 -0.21349,0.53644 -0.71926,0.59531 -0.45925,0.0535 -0.83062,0.32284 -1.02733,0.74518 -0.16944,0.3638 -0.63982,1.34672 -1.0453,2.18425 l -0.73723,1.5228 0.57394,0.61092 c 0.59852,0.63711 0.72553,1.38314 0.33923,1.99273 -0.17202,0.27147 -0.4016,0.12811 -0.95339,-0.59531 -0.39974,-0.52409 -0.84925,-0.95289 -0.99891,-0.95289 -0.14966,0 -0.87966,0.66795 -1.62224,1.48433 l -1.35014,1.48432 z"
         id="path3736"
         inkscape:connector-curvature="0" />
      <path
         style="fill:#484848;stroke-width:0.26458332"
         d="m 99.858067,152.48923 c -0.51164,-0.56658 -0.511485,-0.56692 0.913693,-2.01002 l 1.42541,-1.44334 -0.71525,-1.32434 c -0.86414,-1.60001 -0.86355,-1.5922 -0.11994,-1.59518 0.34815,-0.001 0.8793,0.3431 1.2793,0.82971 l 0.68399,0.83209 0.57494,-0.80744 c 0.31622,-0.44409 0.64839,-1.17464 0.73815,-1.62345 l 0.1632,-0.81602 h -3.07578 c -2.899389,0 -3.075778,-0.0303 -3.075778,-0.52917 0,-0.48213 0.176389,-0.52916 1.984378,-0.52916 1.94027,0 1.98437,-0.0147 1.98437,-0.66146 0,-0.87925 0.98226,-0.93799 1.10608,-0.0662 0.0782,0.55093 0.23741,0.60108 2.13507,0.67259 1.80769,0.0681 2.05052,0.13654 2.05052,0.57774 0,0.34763 -0.21965,0.52603 -0.71926,0.58418 -0.45925,0.0535 -0.83062,0.32284 -1.02733,0.74518 -0.16944,0.3638 -0.63982,1.34672 -1.0453,2.18425 l -0.73723,1.5228 0.57394,0.61092 c 0.59852,0.63711 0.72553,1.38314 0.33923,1.99273 -0.17202,0.27147 -0.4016,0.12811 -0.95339,-0.59531 -0.39974,-0.52409 -0.85896,-0.95289 -1.02048,-0.95289 -0.16152,0 -0.89153,0.66789 -1.62224,1.48421 l -1.32857,1.4842 z"
         id="path3734"
         inkscape:connector-curvature="0" />
      <path
         style="fill:#383838;stroke-width:0.26458332"
         d="m 99.921316,152.55912 c -0.427224,-0.47324 -0.384551,-0.56966 0.900424,-2.03459 l 1.3489,-1.5378 -0.70199,-1.29976 c -0.84958,-1.57307 -0.84922,-1.56764 -0.10667,-1.57062 0.34815,-0.001 0.8793,0.3431 1.2793,0.82971 l 0.68399,0.83209 0.57494,-0.80744 c 0.31622,-0.44409 0.64839,-1.17464 0.73815,-1.62345 l 0.1632,-0.81602 h -3.07578 c -2.877362,0 -3.075778,-0.0334 -3.075778,-0.51804 0,-0.46311 0.217385,-0.52623 2.050518,-0.59531 1.95579,-0.0737 2.0467,-0.10478 1.96775,-0.67259 -0.0628,-0.45172 0.0489,-0.59531 0.46302,-0.59531 0.40579,0 0.5458,0.16967 0.5458,0.66146 0,0.65043 0.0353,0.66146 2.11666,0.66146 1.91604,0 2.11667,0.0485 2.11667,0.51159 0,0.35974 -0.21349,0.53644 -0.71926,0.59531 -0.45925,0.0535 -0.83062,0.32284 -1.02733,0.74518 -0.16944,0.3638 -0.63982,1.34672 -1.0453,2.18425 l -0.73723,1.5228 0.57394,0.61092 c 0.59422,0.63253 0.72584,1.38288 0.34726,1.97974 -0.16098,0.2538 -0.40741,0.097 -0.93545,-0.59532 -0.39429,-0.51694 -0.85712,-0.93989 -1.02851,-0.93989 -0.17139,0 -0.90947,0.66789 -1.64018,1.48421 -1.28272,1.43299 -1.34404,1.46706 -1.777044,0.98742 z"
         id="path3732"
         inkscape:connector-curvature="0" />
      <path
         style="fill:#282828;stroke-width:0.26458332"
         d="m 99.919063,152.57586 c -0.425757,-0.435 -0.375784,-0.54703 0.901967,-2.02196 l 1.3527,-1.56144 -0.70353,-1.30263 c -0.38694,-0.71645 -0.70353,-1.36303 -0.70353,-1.43686 0,-0.0738 0.30319,-0.13423 0.67376,-0.13423 0.47155,0 0.80904,0.23772 1.12448,0.79208 0.2479,0.43564 0.57844,0.79283 0.73455,0.79375 0.33179,0.002 1.43596,-2.10439 1.43596,-2.73929 0,-0.37717 -0.39867,-0.43404 -3.04271,-0.43404 -2.866319,0 -3.042708,-0.0307 -3.042708,-0.52917 0,-0.48507 0.176389,-0.52916 2.116668,-0.52916 2.08139,0 2.11667,-0.011 2.11667,-0.66146 0,-0.41158 0.14993,-0.66146 0.39687,-0.66146 0.24694,0 0.39688,0.24988 0.39688,0.66146 0,0.65043 0.0353,0.66146 2.11666,0.66146 1.94028,0 2.11667,0.0441 2.11667,0.52916 0,0.40662 -0.17639,0.52917 -0.76165,0.52917 -0.61771,0 -0.82173,0.16251 -1.07952,0.8599 -0.17483,0.47294 -0.63324,1.47806 -1.01869,2.2336 l -0.70082,1.3737 0.58971,0.62772 c 0.60847,0.64768 0.74441,1.39529 0.36305,1.99654 -0.16098,0.2538 -0.40741,0.097 -0.93545,-0.59532 -0.39429,-0.51694 -0.85712,-0.93989 -1.02851,-0.93989 -0.17139,0 -0.90947,0.6635 -1.64018,1.47444 -1.25859,1.39678 -1.35231,1.45018 -1.779297,1.01393 z"
         id="path3730"
         inkscape:connector-curvature="0" />
      <path
         style="fill:#151515;stroke-width:0.26458332"
         d="m 99.993521,152.50724 c -0.28972,-0.54135 -0.196878,-0.74627 0.942129,-2.07949 l 1.26352,-1.47897 -0.71625,-1.28287 c -0.39394,-0.70557 -0.71625,-1.34233 -0.71625,-1.41502 0,-0.0727 0.30319,-0.13215 0.67376,-0.13215 0.47155,0 0.80904,0.23772 1.12448,0.79208 0.2479,0.43564 0.56978,0.79191 0.7153,0.79171 0.36686,-5.1e-4 1.45521,-1.96629 1.45521,-2.6284 0,-0.51599 -0.15075,-0.54289 -3.04271,-0.54289 -2.866319,0 -3.042708,-0.0307 -3.042708,-0.52917 0,-0.48507 0.176389,-0.52916 2.116668,-0.52916 2.08139,0 2.11667,-0.011 2.11667,-0.66146 0,-0.41158 0.14993,-0.66146 0.39687,-0.66146 0.24694,0 0.39688,0.24988 0.39688,0.66146 0,0.65043 0.0353,0.66146 2.11666,0.66146 1.94028,0 2.11667,0.0441 2.11667,0.52916 0,0.40493 -0.17639,0.52917 -0.75128,0.52917 -0.73633,0 -1.36539,0.77979 -1.36539,1.69254 0,0.1896 -0.3672,0.85164 -0.81601,1.4712 l -0.816,1.12646 0.71005,0.74114 c 0.58844,0.6142 0.67825,0.88592 0.52437,1.58652 l -0.18568,0.8454 -0.78596,-0.95351 c -0.43228,-0.52442 -0.92612,-0.95512 -1.09743,-0.9571 -0.1713,-0.002 -0.91912,0.67758 -1.66182,1.51014 -1.32592,1.48633 -1.35618,1.50286 -1.671749,0.91321 z"
         id="path3728"
         inkscape:connector-curvature="0" />
      <path
         style="fill:#000000;stroke-width:0.26458332"
         d="m 99.98772,152.35428 c -0.285948,-0.34454 -0.126531,-0.65159 1.0336,-1.99074 l 1.37168,-1.58336 -0.64174,-0.8677 c -0.35297,-0.47723 -0.71816,-1.0839 -0.81155,-1.34814 -0.29817,-0.84365 1.20845,-0.45963 1.62538,0.4143 0.48215,1.01064 0.96373,0.90956 1.61445,-0.33888 1.06205,-2.03759 0.97839,-2.10852 -2.48683,-2.10852 -2.866319,0 -3.042708,-0.0307 -3.042708,-0.52917 0,-0.48507 0.176389,-0.52916 2.116668,-0.52916 2.08139,0 2.11667,-0.011 2.11667,-0.66146 0,-0.41158 0.14993,-0.66146 0.39687,-0.66146 0.24694,0 0.39688,0.24988 0.39688,0.66146 0,0.64583 0.0461,0.66146 1.95351,0.66146 1.71249,0 1.97012,0.0635 2.08807,0.51453 0.10891,0.41646 -0.02,0.52994 -0.67637,0.59532 -0.70356,0.0701 -0.86188,0.23841 -1.19579,1.2714 -0.21167,0.65484 -0.66733,1.56963 -1.01256,2.03286 -0.77818,1.04416 -0.77841,1.03788 0.0662,1.76437 0.58777,0.50558 0.66486,0.72898 0.50411,1.46087 l -0.18977,0.86402 -0.93897,-1.09697 -0.93896,-1.09697 -1.50537,1.48966 c -1.31159,1.29791 -1.54889,1.43722 -1.84346,1.08228 z"
         id="path3726"
         inkscape:connector-curvature="0" />
    </g>
  </g>
</svg>
